<?xml version="1.0" encoding="UTF-8"?>
<svg version="1.1" xmlns="http://www.w3.org/2000/svg" width="1024" height="1024">
<path d="M0 0 C337.92 0 675.84 0 1024 0 C1024 337.92 1024 675.84 1024 1024 C686.08 1024 348.16 1024 0 1024 C0 686.08 0 348.16 0 0 Z " fill="#FBF3E5" transform="translate(0,0)"/>
<path d="M0 0 C1.02915527 0.30147949 2.05831055 0.60295898 3.11865234 0.91357422 C42.02475161 12.57331242 75.3871473 32.34194532 104 61 C105.2065625 62.13695312 105.2065625 62.13695312 106.4375 63.296875 C141.8567708 97.20434766 167.52250914 151.82066122 169 201 C169.06000437 205.00182978 169.06385733 208.99827396 169 213 C170.28003906 213.37511719 170.28003906 213.37511719 171.5859375 213.7578125 C188.29724609 219.83812844 202.05454566 234.40649325 210 250 C215.83952277 262.67835495 218.30856399 274.81059906 218.3359375 288.77734375 C218.3425943 289.98330704 218.3492511 291.18927032 218.35610962 292.43177795 C218.36619107 294.97574348 218.37092804 297.51973522 218.37060547 300.0637207 C218.37495196 303.89515528 218.41124917 307.72541129 218.44921875 311.55664062 C218.52818315 328.43809193 218.20292425 345.70826439 210.25 361.0625 C209.90710938 361.75529053 209.56421875 362.44808105 209.2109375 363.16186523 C206.18535373 369.06465218 202.52079071 374.13970327 198 379 C197.40960937 379.680625 196.81921875 380.36125 196.2109375 381.0625 C182.42704978 396.07813939 163.06102602 402.41746704 143.2734375 404.3671875 C139.70472212 405.05708236 138.49768156 405.8234891 136 408.375 C129.61712395 414.84041324 123.43784284 415.43265067 114.66210938 415.55664062 C113.39173828 415.55857422 112.12136719 415.56050781 110.8125 415.5625 C108.93594727 415.61760742 108.93594727 415.61760742 107.02148438 415.67382812 C97.25766872 415.71957219 89.51890301 413.54757097 81.89013672 407.26147461 C72.12810661 397.18517129 71.26736134 384.88038623 71.36889648 371.64013672 C71.3637481 369.9206163 71.35645992 368.20110117 71.34721375 366.4815979 C71.32881129 361.84521965 71.34156613 357.20942171 71.36130404 352.57306814 C71.37777932 347.70374557 71.36886561 342.8344572 71.36378479 337.96511841 C71.35927457 329.79289559 71.37506917 321.62090247 71.40307617 313.44873047 C71.43514463 304.01913295 71.43510047 294.58994902 71.4178614 285.16032207 C71.40196525 276.06201008 71.40874834 266.96384881 71.42579842 257.86554337 C71.43264612 254.00532104 71.43166005 250.14522036 71.42425346 246.28499985 C71.41655852 241.73588766 71.42882084 237.18724294 71.45610237 232.6382103 C71.46295294 230.97503038 71.46312014 229.31180653 71.45588684 227.64862823 C71.40972104 215.64517152 72.48841742 205.76062757 81.0859375 196.6875 C89.7494057 189.04950354 101.14798707 188.45969358 112.1875 188.7578125 C121.38115817 189.34183587 126.53014946 192.5654075 133 199 C127.70517445 151.97878806 104.36306038 104.66471163 67.5 74.25 C65.67171149 72.82682866 63.83825515 71.41027429 62 70 C61.02933594 69.20207031 60.05867188 68.40414062 59.05859375 67.58203125 C50.96260921 60.9871103 42.27311371 55.92360416 33.04199219 51.07373047 C31.30363518 50.15965896 29.57634744 49.22458626 27.8515625 48.28515625 C-3.93248117 31.50282507 -39.58877758 27.10911453 -75 28 C-75.72477539 28.01015137 -76.44955078 28.02030273 -77.19628906 28.03076172 C-103.08051791 28.42844394 -130.14180628 37.23322528 -153 49 C-154.24988833 49.62131844 -155.49989111 50.2424067 -156.75 50.86328125 C-181.60806591 63.43396921 -203.98150325 83.28139438 -220 106 C-220.59989746 106.83337891 -220.59989746 106.83337891 -221.21191406 107.68359375 C-238.17967456 131.38203359 -257.30937558 166.8843616 -256 197 C-255.34 196.401875 -254.68 195.80375 -254 195.1875 C-247.75866327 190.6365253 -241.77719822 189.48402292 -234.25 189.625 C-233.4664917 189.63442627 -232.6829834 189.64385254 -231.87573242 189.65356445 C-223.43064302 189.87103829 -214.38896721 190.79293093 -207.59375 196.2890625 C-200.28516661 204.13504173 -196.76073252 212.73553157 -196.73257446 223.42489624 C-196.72804335 224.13914878 -196.72351224 224.85340133 -196.71884382 225.58929789 C-196.70625807 227.96503528 -196.70781637 230.34054171 -196.70947266 232.71630859 C-196.70348382 234.42685742 -196.69667745 236.13740356 -196.68911743 237.84794617 C-196.67148785 242.4823002 -196.66676338 247.11658032 -196.66548586 251.75096464 C-196.66406214 254.64916593 -196.65978839 257.54734855 -196.65449142 260.4455452 C-196.63600222 270.56429483 -196.62781955 280.68299185 -196.62939453 290.80175781 C-196.63059609 300.22158189 -196.60948805 309.64117689 -196.5779072 319.06094301 C-196.55172649 327.15968251 -196.54102797 335.25834726 -196.54230535 343.35712874 C-196.54281439 348.18920111 -196.53716295 353.02106975 -196.51594925 357.85309982 C-196.49653623 362.39880492 -196.49646326 366.94411253 -196.51098251 371.48983192 C-196.51306781 373.15344768 -196.50838638 374.81708852 -196.4962616 376.48066139 C-196.43815908 385.00809069 -196.40891479 392.48852917 -201 400 C-201.5775 401.051875 -202.155 402.10375 -202.75 403.1875 C-208.20454151 410.00567689 -215.42999797 414.34008666 -224 416 C-227.68915621 416.33794904 -231.35903976 416.45365268 -235.0625 416.5 C-235.98434082 416.51853027 -236.90618164 416.53706055 -237.85595703 416.55615234 C-244.97801086 416.49146405 -252.5512448 415.36050054 -257.85083008 410.1965332 C-258.35380615 409.61605225 -258.85678223 409.03557129 -259.375 408.4375 C-264.7166226 403.31390281 -272.07279299 403.51499631 -279.078125 402.6640625 C-293.81762576 400.83421559 -306.99552356 393.75396775 -318 384 C-318.61359375 383.48050781 -319.2271875 382.96101563 -319.859375 382.42578125 C-333.31429789 370.17439504 -341.2732382 350.80109114 -343 333 C-343.16594615 328.85317974 -343.18772066 324.70840192 -343.203125 320.55859375 C-343.20882507 319.3587233 -343.21452515 318.15885284 -343.22039795 316.92262268 C-343.22982301 314.3868192 -343.23637199 311.8510036 -343.24023438 309.31518555 C-343.24990588 305.47487449 -343.28094021 301.63510677 -343.3125 297.79492188 C-343.41752388 273.79266247 -343.41752388 273.79266247 -340 263 C-339.78085937 262.26048096 -339.56171875 261.52096191 -339.3359375 260.7590332 C-332.8043397 240.37585553 -318.21455799 225.47064411 -300 215 C-298.89269531 214.63777344 -297.78539062 214.27554688 -296.64453125 213.90234375 C-293.85928497 212.31840354 -293.85928497 212.31840354 -293.44018555 209.96923828 C-293.15942989 207.16059668 -293.0625056 204.38447062 -293 201.5625 C-290.1915398 149.60598627 -265.43124851 100.24835743 -230.3125 62.5625 C-229.70696289 61.91216797 -229.10142578 61.26183594 -228.47753906 60.59179688 C-224.22024163 56.10144414 -219.72535153 51.99183239 -215 48 C-214.41790771 47.50636963 -213.83581543 47.01273926 -213.23608398 46.50415039 C-203.67713289 38.490108 -193.66743902 31.4574906 -183 25 C-182.30068359 24.57477051 -181.60136719 24.14954102 -180.88085938 23.71142578 C-127.78486865 -8.1682307 -59.54503365 -17.48370255 0 0 Z " fill="#2C1E4D" transform="translate(572,165)"/>
<path d="M0 0 C4.19161906 0 7.88857686 0.13443723 12 1 C12.6875 3.3125 12.6875 3.3125 13 6 C11.5625 7.8125 11.5625 7.8125 10 9 C13.67986596 9.204437 15.78360346 8.74565111 19 7 C19.66386719 7.88042969 20.32773437 8.76085937 21.01171875 9.66796875 C21.90344776 10.8412964 22.79538602 12.01446503 23.6875 13.1875 C24.12255859 13.76564453 24.55761719 14.34378906 25.00585938 14.93945312 C27.09003155 17.67203442 29.14496775 20.14322378 31.59765625 22.56640625 C58.02999998 49.34258534 70.93624838 101.51578532 71.0625 137.75 C71.04679439 139.50005353 71.02792396 141.25009878 71 143 C71.85335937 143.25007812 72.70671875 143.50015625 73.5859375 143.7578125 C90.29724609 149.83812844 104.05454566 164.40649325 112 180 C117.83952277 192.67835495 120.30856399 204.81059906 120.3359375 218.77734375 C120.3459227 220.58628868 120.3459227 220.58628868 120.35610962 222.43177795 C120.36619107 224.97574348 120.37092804 227.51973522 120.37060547 230.0637207 C120.37495196 233.89515528 120.41124917 237.72541129 120.44921875 241.55664062 C120.52818315 258.43809193 120.20292425 275.70826439 112.25 291.0625 C111.90710938 291.75529053 111.56421875 292.44808105 111.2109375 293.16186523 C108.18535373 299.06465218 104.52079071 304.13970327 100 309 C99.40960937 309.680625 98.81921875 310.36125 98.2109375 311.0625 C84.42704978 326.07813939 65.06102602 332.41746704 45.2734375 334.3671875 C41.70472212 335.05708236 40.49768156 335.8234891 38 338.375 C31.61712395 344.84041324 25.43784284 345.43265067 16.66210938 345.55664062 C15.39173828 345.55857422 14.12136719 345.56050781 12.8125 345.5625 C10.93594727 345.61760742 10.93594727 345.61760742 9.02148438 345.67382812 C-0.74233128 345.71957219 -8.48109699 343.54757097 -16.10986328 337.26147461 C-25.87189339 327.18517129 -26.73263866 314.88038623 -26.63110352 301.64013672 C-26.6362519 299.9206163 -26.64354008 298.20110117 -26.65278625 296.4815979 C-26.67118871 291.84521965 -26.65843387 287.20942171 -26.63869596 282.57306814 C-26.62222068 277.70374557 -26.63113439 272.8344572 -26.63621521 267.96511841 C-26.64072543 259.79289559 -26.62493083 251.62090247 -26.59692383 243.44873047 C-26.56485537 234.01913295 -26.56489953 224.58994902 -26.5821386 215.16032207 C-26.59803475 206.06201008 -26.59125166 196.96384881 -26.57420158 187.86554337 C-26.56735388 184.00532104 -26.56833995 180.14522036 -26.57574654 176.28499985 C-26.58344148 171.73588766 -26.57117916 167.18724294 -26.54389763 162.6382103 C-26.53704706 160.97503038 -26.53687986 159.31180653 -26.54411316 157.64862823 C-26.59027896 145.64517152 -25.51158258 135.76062757 -16.9140625 126.6875 C-8.2505943 119.04950354 3.14798707 118.45969358 14.1875 118.7578125 C23.38115817 119.34183587 28.53014946 122.5654075 35 129 C30.4800117 88.85980537 13.24901917 47.52924464 -16 19 C-14.73058503 15.08597051 -13.48832306 13.20927127 -10 11 C-8.02 11.99 -6.04 12.98 -4 14 C-3.83972246 11.92398602 -3.83972246 11.92398602 -5.0625 10.0625 C-6 8 -6 8 -5 5 C-4.34 5 -3.68 5 -3 5 C-3 4.34 -3 3.68 -3 3 C-2.34 3 -1.68 3 -1 3 C-0.67 2.01 -0.34 1.02 0 0 Z " fill="#2C1E4D" transform="translate(670,235)"/>
<path d="M0 0 C2.51768983 1.58840735 5.03832255 3.17192495 7.5625 4.75 C8.34496094 5.24113281 9.12742187 5.73226563 9.93359375 6.23828125 C15.7277608 9.34431622 21.9079527 9.27305842 28.35693359 9.33618164 C34.18768857 9.44489484 34.18768857 9.44489484 36.27563477 11.14453125 C38.46808921 13.87979599 38.14618788 16.46393394 38.046875 19.85546875 C35.95734662 32.3420859 27.30089918 40.7151285 17.53125 47.7578125 C9.46148038 53.17305264 1.25426717 54.20039207 -8.4375 52.75 C-14.29355127 51.30760348 -19.87268454 49.04585057 -25.4375 46.75 C-26.43265625 46.3478125 -27.4278125 45.945625 -28.453125 45.53125 C-29.29359375 45.1909375 -30.1340625 44.850625 -31 44.5 C-36.97798953 42.08057759 -42.19814429 40.63908531 -48.6875 40.703125 C-50.02554688 40.71327637 -50.02554688 40.71327637 -51.390625 40.72363281 C-52.06609375 40.73233398 -52.7415625 40.74103516 -53.4375 40.75 C-53.43988835 41.5359234 -53.44227671 42.32184681 -53.44473743 43.13158607 C-53.50402122 62.30551205 -53.57965625 81.47931077 -53.67321491 100.65310097 C-53.71807102 109.92562341 -53.75750886 119.19810833 -53.78393555 128.47070312 C-53.80699845 136.55809142 -53.84048816 144.64535991 -53.88620156 152.73265302 C-53.91002258 157.00992345 -53.92882386 161.28707605 -53.93511391 165.56441116 C-53.94121556 169.60116805 -53.96139555 173.63762388 -53.99177551 177.67426872 C-54.00047519 179.14546927 -54.00429535 180.61670931 -54.00250816 182.08793449 C-53.98700489 200.76107464 -57.89515804 216.52672561 -70.4375 230.75 C-71.09363281 231.50023437 -71.74976563 232.25046875 -72.42578125 233.0234375 C-84.01900799 245.44323799 -101.13870542 254.27706789 -118.26953125 255.0859375 C-134.68920272 255.38234498 -147.88915918 252.06011412 -160.1875 240.5625 C-169.42447188 230.86776668 -172.89150975 219.92214166 -172.87133789 206.80639648 C-172.51526516 192.23400933 -165.18475362 179.29695633 -155.4375 168.75 C-141.41724705 156.27255343 -125.94075339 148.60038578 -107 148.375 C-105.71307251 148.35385132 -105.71307251 148.35385132 -104.40014648 148.33227539 C-99.40828963 148.36953861 -94.93886728 149.01500017 -90.10131836 150.27490234 C-89.03610458 150.54974457 -87.97089081 150.82458679 -86.87339783 151.10775757 C-86.06955154 151.31969757 -85.26570526 151.53163757 -84.4375 151.75 C-84.43511165 150.95339211 -84.43272329 150.15678421 -84.43026257 149.33603668 C-84.37108654 129.9388952 -84.29551975 110.54188069 -84.20178509 91.14487457 C-84.15684927 81.76456324 -84.11742948 72.38428968 -84.09106445 63.00390625 C-84.06806646 54.82648222 -84.03464827 46.64917797 -83.98879844 38.47184896 C-83.96489052 34.14334946 -83.94614582 29.81496841 -83.93988609 25.48640442 C-83.93382422 21.40862673 -83.91378474 17.33115201 -83.88322449 13.25348663 C-83.87446189 11.76041521 -83.87071799 10.26730416 -83.87249184 8.77420807 C-83.88411371 -5.52759534 -83.88411371 -5.52759534 -80.4375 -12.25 C-60.0588718 -30.73294185 -19.10936949 -12.11753571 0 0 Z " fill="#2C1F4D" transform="translate(581.4375,267.25)"/>
<path d="M0 0 C2.0304137 0.00315772 4.05936624 -0.02029792 6.08959961 -0.0456543 C8.01255859 -0.04662109 8.01255859 -0.04662109 9.97436523 -0.04760742 C11.14926514 -0.05058838 12.32416504 -0.05356934 13.53466797 -0.05664062 C17.02083318 0.3663367 18.14889708 0.8498949 20.60327148 3.31567383 C21.31639099 6.19831848 21.31639099 6.19831848 21.62060547 9.77587891 C21.71199138 10.75989685 21.71199138 10.75989685 21.80522346 11.76379395 C22.00412951 13.95310285 22.17663693 16.14368768 22.34936523 18.33520508 C22.48541269 19.88879118 22.62313834 21.44223112 22.76243591 22.99552917 C23.13261771 27.17254729 23.48053187 31.35115229 23.82454681 35.53039551 C24.18473472 39.85778481 24.56575495 44.18332878 24.94555664 48.5090332 C25.47977395 54.61165206 26.00813749 60.71471693 26.52823257 66.81855583 C27.6676847 80.18590929 28.90071325 93.54339375 30.15725708 106.90023804 C30.98474137 115.70426497 31.79906525 124.50949209 32.60327148 133.31567383 C32.77451538 135.17554932 32.77451538 135.17554932 32.94921875 137.07299805 C33.46210085 142.86988555 33.78542223 148.62068955 33.79077148 154.44067383 C33.80301758 155.1805957 33.81526367 155.92051758 33.82788086 156.68286133 C33.83302435 158.56195059 33.72701425 160.44065633 33.60327148 162.31567383 C30.25165025 165.66729506 25.86888075 164.61278815 21.31420898 164.63793945 C20.64357422 164.63576416 19.97293945 164.63358887 19.28198242 164.63134766 C17.24269767 164.62819612 15.20487586 164.65161175 13.16577148 164.67700195 C11.87928711 164.67764648 10.59280273 164.67829102 9.26733398 164.67895508 C7.49543701 164.68342651 7.49543701 164.68342651 5.68774414 164.68798828 C2.20808038 164.26797188 1.07134068 163.74971195 -1.39672852 161.31567383 C-2.08456421 158.69076538 -2.08456421 158.69076538 -2.35131836 155.48510742 C-2.46029449 154.27859528 -2.56927063 153.07208313 -2.68154907 151.82901001 C-2.78240854 150.49908064 -2.88276562 149.16911309 -2.98266602 147.83911133 C-3.10026056 146.45083777 -3.21929842 145.0626858 -3.33969116 143.6746521 C-3.65453411 139.97662431 -3.94430105 136.27709615 -4.2250824 132.57633972 C-4.39411426 130.35010485 -4.56685513 128.12418693 -4.74060059 125.89831543 C-5.60237845 114.81424822 -6.39889725 103.72568911 -7.18511963 92.63604736 C-7.50520876 88.12360886 -7.82885561 83.61145645 -8.15775681 79.09965134 C-8.30814789 77.01635036 -8.45318889 74.932721 -8.59805298 72.84902954 C-8.68839813 71.60777313 -8.77874329 70.36651672 -8.87182617 69.08764648 C-8.98815903 67.44585922 -8.98815903 67.44585922 -9.10684204 65.77090454 C-9.13300411 63.37295902 -9.13300411 63.37295902 -10.39672852 62.31567383 C-12.67933506 67.10036075 -14.95829432 71.88676471 -17.23379517 76.67483521 C-18.04957461 78.39125303 -18.86579653 80.10746062 -19.6824646 81.82345581 C-24.13204696 91.17904726 -28.53813831 100.54835128 -32.75610352 110.01098633 C-33.09447739 110.76769119 -33.43285126 111.52439606 -33.78147888 112.30403137 C-35.38137749 115.88539741 -36.96834314 119.47163407 -38.53564453 123.06738281 C-39.11000893 124.3599704 -39.68477474 125.65237971 -40.26000977 126.94458008 C-40.74767822 128.05905518 -41.23534668 129.17353027 -41.73779297 130.32177734 C-43.59569905 133.67475781 -45.43094912 135.88733985 -48.39672852 138.31567383 C-50.84448242 138.94677734 -50.84448242 138.94677734 -53.37329102 138.94458008 C-54.29110352 138.94651367 -55.20891602 138.94844727 -56.15454102 138.95043945 C-57.10071289 138.9265918 -58.04688477 138.90274414 -59.02172852 138.87817383 C-59.97563477 138.88913086 -60.92954102 138.90008789 -61.91235352 138.91137695 C-67.18066166 138.85572581 -67.18066166 138.85572581 -69.39672852 138.31567383 C-72.03059597 135.57695622 -73.4462664 132.32588322 -75.00610352 128.88989258 C-75.5061792 127.79813721 -76.00625488 126.70638184 -76.52148438 125.58154297 C-77.05781494 124.40068115 -77.59414551 123.21981934 -78.14672852 122.00317383 C-79.30556563 119.47271533 -80.46939091 116.94457735 -81.63500977 114.41723633 C-82.08892845 113.43253105 -82.08892845 113.43253105 -82.55201721 112.42793274 C-86.64374686 103.5807743 -90.92253668 94.82359072 -95.19458008 86.0625 C-99.02920781 78.19078561 -102.76124576 70.281376 -106.39672852 62.31567383 C-108.32048655 81.09004519 -109.98251634 99.88109653 -111.52172852 118.69067383 C-111.60781372 119.73512665 -111.69389893 120.77957947 -111.78259277 121.85568237 C-112.03394332 124.91247092 -112.28211388 127.96950296 -112.52954102 131.02661133 C-112.64978638 132.48300774 -112.64978638 132.48300774 -112.77246094 133.96882629 C-113.13231652 138.44424451 -113.44124548 142.9071898 -113.5949707 147.39477539 C-113.64015335 148.56419174 -113.64015335 148.56419174 -113.68624878 149.75723267 C-113.75824254 151.81738584 -113.8067624 153.87832298 -113.85327148 155.93920898 C-114.49993812 159.95690869 -115.33659251 161.63715034 -118.39672852 164.31567383 C-121.46533203 164.9309082 -121.46533203 164.9309082 -125.02563477 164.90942383 C-126.94859375 164.90555664 -126.94859375 164.90555664 -128.91040039 164.90161133 C-129.90704712 164.8798584 -129.90704712 164.8798584 -130.92382812 164.85766602 C-132.9567924 164.81572409 -134.98645046 164.81660453 -137.01977539 164.82348633 C-146.84115562 164.72462996 -146.84115562 164.72462996 -149.06974792 163.08416748 C-150.81659231 160.75611292 -150.70511275 159.48760763 -150.56762695 156.59985352 C-150.52720276 155.63573547 -150.48677856 154.67161743 -150.44512939 153.67828369 C-150.38275085 152.62534119 -150.32037231 151.57239868 -150.25610352 150.48754883 C-150.20033142 149.37869324 -150.14455933 148.26983765 -150.08709717 147.12738037 C-149.38099106 134.24424928 -148.1207362 121.41062054 -146.84521103 108.57383347 C-146.22387271 102.28740297 -145.62564749 95.9986998 -145.02563477 89.71020508 C-144.95756937 88.99878923 -144.88950397 88.28737339 -144.81937599 87.55439949 C-143.00087326 68.51053063 -141.47199928 49.44339236 -139.95825195 30.37329102 C-139.85984512 29.14149612 -139.76143829 27.90970123 -139.66004944 26.64057922 C-139.47759092 24.35216528 -139.29713371 22.06359046 -139.11912537 19.77482605 C-138.89463318 16.95336331 -138.65234874 14.13446618 -138.39672852 11.31567383 C-138.30882553 10.23855637 -138.30882553 10.23855637 -138.21914673 9.13967896 C-137.95361513 6.60533698 -137.57358493 4.61856318 -136.28125 2.40527344 C-133.31407327 0.68970021 -130.64334992 0.90757917 -127.24438477 0.88208008 C-126.19957191 0.8742173 -126.19957191 0.8742173 -125.13365173 0.86619568 C-123.66186861 0.85977857 -122.19003417 0.86110854 -120.71826172 0.86962891 C-118.47017695 0.87813242 -116.22463986 0.84939062 -113.97680664 0.81762695 C-112.54516678 0.81601458 -111.11352242 0.81659317 -109.68188477 0.81958008 C-108.38130127 0.81772705 -107.08071777 0.81587402 -105.74072266 0.81396484 C-101.71458608 1.41801761 -100.98923761 2.2738636 -98.39672852 5.31567383 C-97.2718134 7.21727178 -96.22564158 9.1665485 -95.23974609 11.14379883 C-94.64845413 12.32022949 -94.05716217 13.49666016 -93.44795227 14.70874023 C-92.81210946 15.99424698 -92.17655312 17.27989545 -91.54125977 18.56567383 C-90.87409574 19.90239225 -90.20633454 21.23881277 -89.53800964 22.57495117 C-88.13527732 25.3835433 -86.73794819 28.19473491 -85.34472656 31.00805664 C-83.58898909 34.5530296 -81.82309337 38.09280982 -80.05348396 41.63087463 C-73.05870122 55.62174669 -66.17817473 69.63329683 -59.90722656 83.96801758 C-58.73261512 87.09769161 -58.73261512 87.09769161 -57.39672852 88.31567383 C-57.03546875 87.53780518 -56.67420898 86.75993652 -56.30200195 85.95849609 C-49.05662928 70.36812928 -41.76057897 54.80633511 -34.28735352 39.32348633 C-32.29895616 35.20235069 -30.33248217 31.07165215 -28.38110352 26.93286133 C-27.8902124 25.89508545 -27.39932129 24.85730957 -26.89355469 23.78808594 C-25.97051938 21.83502179 -25.0511143 19.88023568 -24.13623047 17.92333984 C-17.92388151 4.81024326 -15.22573061 -0.04969113 0 0 Z " fill="#2B1E4C" transform="translate(309.396728515625,635.684326171875)"/>
<path d="M0 0 C0.81035202 -0.00807175 1.62070404 -0.01614349 2.45561218 -0.02445984 C4.17473195 -0.03831696 5.89387943 -0.0490318 7.61303711 -0.05688477 C10.24060432 -0.07408057 12.86690788 -0.11794798 15.49414062 -0.16210938 C17.16275114 -0.17223747 18.83137238 -0.18075321 20.5 -0.1875 C21.67832146 -0.21376213 21.67832146 -0.21376213 22.88044739 -0.24055481 C26.24088155 -0.22721966 28.48478817 -0.07097172 31.31518555 1.8137207 C33.37125492 4.86449389 34.48905968 7.96846508 35.54296875 11.45703125 C35.77066956 12.17369461 35.99837036 12.89035797 36.23297119 13.6287384 C36.72446432 15.18028974 37.21037107 16.73361945 37.69128418 18.28848267 C38.72994309 21.64563938 39.79606547 24.99389345 40.86004639 28.34309387 C41.41230461 30.0828628 41.96311023 31.82309346 42.51251221 33.56376648 C45.15247973 41.92296411 47.91210087 50.23971434 50.69921875 58.55078125 C51.17951742 59.98660166 51.65965882 61.42247468 52.13964844 62.85839844 C52.89496946 65.11773043 53.65046325 67.37700374 54.40655518 69.63607788 C57.81330062 79.81514235 61.20447555 89.99940127 64.59777832 100.18295288 C66.35516879 105.45673112 68.11314712 110.73031338 69.87109375 116.00390625 C70.47103155 117.80370997 71.07096675 119.60351455 71.67089844 121.40332031 C71.91894226 122.14745178 72.16698608 122.89158325 72.42254639 123.65826416 C72.59634827 124.1796698 72.77015015 124.70107544 72.94921875 125.23828125 C75.56208405 118.85233699 77.98903843 112.43806176 80.19921875 105.90234375 C80.49391556 105.03766479 80.78861237 104.17298584 81.09223938 103.28210449 C82.04736228 100.47677192 82.99844805 97.67009153 83.94921875 94.86328125 C84.61863315 92.89303223 85.28814946 90.92281784 85.95776367 88.95263672 C92.77193113 68.88308869 99.47710582 48.77721804 106.12583923 28.65231323 C107.05413407 25.84400876 107.98460052 23.03642642 108.91537476 20.22894287 C109.55571698 18.29418334 110.19261225 16.35831285 110.8293457 14.42236328 C111.4030188 12.69155518 111.4030188 12.69155518 111.98828125 10.92578125 C112.48642334 9.41564453 112.48642334 9.41564453 112.99462891 7.875 C115.27539173 1.57519476 115.27539173 1.57519476 117.94921875 0.23828125 C120.55195307 0.12734809 123.12713241 0.07418047 125.73046875 0.0703125 C126.49975708 0.0669841 127.26904541 0.0636557 128.06164551 0.06022644 C129.68904013 0.05516121 131.31644515 0.05281799 132.94384766 0.05297852 C135.4393005 0.05078995 137.9343128 0.03262471 140.4296875 0.01367188 C142.00911307 0.01073834 143.58854074 0.00875328 145.16796875 0.0078125 C145.91695435 0.00062698 146.66593994 -0.00655853 147.43762207 -0.01396179 C152.72039115 0.00945365 152.72039115 0.00945365 154.94921875 2.23828125 C154.73029814 9.62997554 152.04813946 16.20511657 149.5234375 23.0859375 C149.0632175 24.35865826 148.60373303 25.63164519 148.14492798 26.90487671 C146.9089479 30.32833654 145.66273234 33.74798659 144.41452408 37.16700363 C143.10588563 40.75703231 141.80678439 44.35050944 140.5065918 47.94360352 C138.10627103 54.57239536 135.69761002 61.19811983 133.28499508 67.82244587 C130.64903744 75.06051682 128.0216958 82.30170268 125.39453125 89.54296875 C121.68160524 99.77296065 117.95899474 109.99939025 114.23123169 120.22398376 C111.83580015 126.79685857 109.45091193 133.37345339 107.07421875 139.953125 C106.22979151 142.28789034 105.38521267 144.6226008 104.5406189 146.95730591 C104.02809599 148.37595597 103.51653376 149.79495353 103.00601196 151.21432495 C102.3293425 153.09557766 101.64917028 154.97556941 100.96875 156.85546875 C100.59854736 157.88269043 100.22834473 158.90991211 99.84692383 159.96826172 C98.94921875 162.23828125 98.94921875 162.23828125 97.94921875 163.23828125 C96.40037204 163.35235314 94.8464009 163.39785113 93.29345703 163.4152832 C91.80653854 163.43453606 91.80653854 163.43453606 90.2895813 163.45417786 C89.21046478 163.46156479 88.13134827 163.46895172 87.01953125 163.4765625 C85.36762283 163.48867012 85.36762283 163.48867012 83.68234253 163.50102234 C81.34700098 163.51488147 79.01163901 163.5255954 76.67626953 163.53344727 C73.09629165 163.55067503 69.51723328 163.59454763 65.9375 163.63867188 C63.6731839 163.64879679 61.40885993 163.65731352 59.14453125 163.6640625 C58.0694632 163.68157059 56.99439514 163.69907867 55.88674927 163.71711731 C54.88916595 163.71419174 53.89158264 163.71126617 52.86376953 163.70825195 C51.98520294 163.71411819 51.10663635 163.71998444 50.20144653 163.72602844 C47.94921875 163.23828125 47.94921875 163.23828125 46.21809387 161.39501953 C44.56696408 158.58855358 43.56606768 155.77139742 42.515625 152.6875 C42.28636826 152.02328537 42.05711151 151.35907074 41.82090759 150.67472839 C41.31554084 149.20966264 40.81320461 147.74354896 40.31347656 146.27655029 C38.88816094 142.09749799 37.43581842 137.92784836 35.984375 133.7578125 C35.66743683 132.84620361 35.35049866 131.93459473 35.0239563 130.99536133 C31.35484447 120.47678181 27.52904838 110.01581193 23.70541382 99.55264282 C20.00858051 89.43100905 16.33102297 79.30233312 12.6524353 69.17405701 C11.93174897 67.19019141 11.21064358 65.20647846 10.48950195 63.22277832 C7.76055819 55.71379107 5.04046541 48.20171956 2.33863831 40.68292809 C1.15845759 37.39912966 -0.0254019 34.11677973 -1.21899414 30.83782959 C-2.54505001 27.19445863 -3.85335322 23.54485493 -5.16015625 19.89453125 C-5.55599915 18.81475006 -5.95184204 17.73496887 -6.35968018 16.62246704 C-8.24721933 11.30208398 -9.66132649 6.89899145 -9.05078125 1.23828125 C-7.01047586 -0.80202414 -2.80468451 0.02617166 0 0 Z " fill="#FA671F" transform="translate(654.05078125,635.76171875)"/>
<path d="M0 0 C0.98178223 -0.00430527 0.98178223 -0.00430527 1.98339844 -0.00869751 C3.36524319 -0.01073618 4.74711693 -0.00521996 6.12890625 0.00732422 C8.2428445 0.02338314 10.35487113 0.00747149 12.46875 -0.01171875 C13.81250422 -0.00973628 15.15625724 -0.00589252 16.5 0 C17.72203125 0.00338379 18.9440625 0.00676758 20.203125 0.01025391 C23.25 0.3984375 23.25 0.3984375 24.91737366 1.49250793 C26.93504579 4.37819378 26.62156154 6.78998338 26.61889648 10.28149414 C26.62266296 10.97787994 26.62642944 11.67426575 26.63031006 12.39175415 C26.63674488 13.90424822 26.63641025 15.41678272 26.63012505 16.92927742 C26.62100836 19.33109035 26.63124774 21.73212342 26.64674377 24.13389587 C26.6868072 30.96254227 26.68805863 37.79112867 26.68579102 44.61987305 C26.68573961 48.79915686 26.70506566 52.97802463 26.73512459 57.15719414 C26.74586821 59.50921886 26.73386337 61.86042024 26.72129822 64.2124176 C26.73734037 77.15278382 26.73734037 77.15278382 32.91209412 88.15126038 C38.01905199 92.39727697 44.34103746 92.05911589 50.6796875 91.80078125 C55.45413325 91.26274196 58.62563033 90.58304591 62.25 87.3984375 C68.50138285 79.20933227 67.95109253 69.8510414 67.88671875 60.0859375 C67.8947702 58.42348905 67.90529482 56.76105092 67.91816711 55.09863281 C67.946548 50.7526919 67.94731651 46.40722988 67.94030762 42.06121826 C67.93294478 35.07820611 67.96424489 28.09534433 68.00275612 21.11245728 C68.01161843 18.67601666 68.00630448 16.23990682 67.99919128 13.8034668 C68.00257348 12.31949777 68.00632206 10.83552951 68.01049805 9.3515625 C68.00786201 7.40491699 68.00786201 7.40491699 68.00517273 5.41894531 C68.25 2.3984375 68.25 2.3984375 70.25 0.3984375 C74.65001337 -0.00104721 79.06458162 0.06942189 83.48071289 0.08276367 C85.67579921 0.08592067 87.86953385 0.06247989 90.06445312 0.03710938 C91.45833163 0.03483607 92.85221377 0.03413303 94.24609375 0.03515625 C96.15152954 0.03068481 96.15152954 0.03068481 98.09545898 0.02612305 C101.25 0.3984375 101.25 0.3984375 102.92292881 1.62992859 C104.63554137 3.91222557 104.62940975 5.22827784 104.63768005 8.06689453 C104.64758469 9.02589661 104.65748932 9.98489868 104.66769409 10.97296143 C104.66319244 12.02344666 104.6586908 13.07393188 104.65405273 14.15625 C104.66091599 15.26377625 104.66777924 16.37130249 104.67485046 17.51239014 C104.69319112 21.1828687 104.68927079 24.85292284 104.68359375 28.5234375 C104.68815176 31.06787252 104.69345618 33.6123063 104.69947815 36.15673828 C104.70842336 41.49322078 104.70620248 46.82954771 104.69604492 52.16601562 C104.684559 58.33677085 104.69864554 64.5070917 104.7254414 70.67778969 C104.75024864 76.61251108 104.75278033 82.54709714 104.74632454 88.48187256 C104.74617077 91.00812503 104.75226079 93.53438565 104.76461601 96.06060791 C104.77943534 99.58761249 104.76891506 103.11365138 104.75170898 106.640625 C104.76137695 107.69111023 104.77104492 108.74159546 104.78100586 109.82391357 C104.76625465 111.26241669 104.76625465 111.26241669 104.75120544 112.72998047 C104.75089152 113.98100052 104.75089152 113.98100052 104.75057125 115.2572937 C104.25 117.3984375 104.25 117.3984375 102.39225864 119.16595459 C99.57739183 120.78540201 97.5498929 120.78637048 94.3125 120.796875 C92.59933594 120.80267578 92.59933594 120.80267578 90.8515625 120.80859375 C89.66304688 120.79699219 88.47453125 120.78539062 87.25 120.7734375 C85.46722656 120.79083984 85.46722656 120.79083984 83.6484375 120.80859375 C82.50632812 120.80472656 81.36421875 120.80085937 80.1875 120.796875 C78.62322266 120.79179932 78.62322266 120.79179932 77.02734375 120.78662109 C73.89326662 120.34857761 72.50515098 119.58465518 70.25 117.3984375 C69.72200324 114.63701447 70.06401019 112.23478205 70.25 109.3984375 C69.59 109.3984375 68.93 109.3984375 68.25 109.3984375 C68.05535156 109.98367188 67.86070312 110.56890625 67.66015625 111.171875 C65.67809313 114.30144835 62.9359995 115.48431703 59.6875 117.0234375 C58.73097534 117.48182007 58.73097534 117.48182007 57.75512695 117.94946289 C45.18297552 123.80945847 30.22121335 124.36330373 16.890625 120.4296875 C6.56157661 116.39585795 -1.19089734 108.56083801 -5.625 98.4609375 C-10.10508804 87.32337598 -10.06175162 76.05546809 -10.05078125 64.24609375 C-10.05467396 62.49637247 -10.0590098 60.74665213 -10.06376648 58.99693298 C-10.07118906 55.35005611 -10.07096367 51.70327617 -10.06567383 48.05639648 C-10.05984495 43.38000307 -10.07691104 38.70400133 -10.1000185 34.02767277 C-10.1147232 30.42377908 -10.1156327 26.81998091 -10.11250877 23.21606255 C-10.11302234 21.49085137 -10.11826669 19.76563491 -10.12832069 18.04045296 C-10.14062218 15.63746293 -10.13393504 13.23525239 -10.12231445 10.83227539 C-10.12995819 10.12006332 -10.13760193 9.40785126 -10.14547729 8.67405701 C-10.11475606 5.8079618 -10.06597998 3.85844234 -8.41716003 1.45808411 C-5.70518866 -0.26564439 -3.17073724 0.00877973 0 0 Z " fill="#2B1E4C" transform="translate(366.75,679.6015625)"/>
<path d="M0 0 C1.84513184 0.00918457 1.84513184 0.00918457 3.72753906 0.01855469 C15.84117489 0.22603462 31.21585288 1.34085288 40.3125 10.4375 C41.3910087 15.83004352 41.46777223 21.26194035 41.5625 26.75 C41.58393066 27.45592285 41.60536133 28.1618457 41.62744141 28.88916016 C41.66001267 33.92081694 41.66001267 33.92081694 39.98046875 36.41796875 C37.7434431 37.78533103 36.05000561 37.56450951 33.52734375 37.08984375 C29.65146389 35.94827067 26.00510756 34.24527998 22.30078125 32.64453125 C12.52928523 28.69761325 -0.96812777 26.39769057 -11.1875 29.5 C-13.98386276 31.30551194 -13.98386276 31.30551194 -14.875 34.8125 C-14.9900082 38.46432709 -14.9900082 38.46432709 -12.9375 41.125 C-6.45602745 45.736817 1.06718103 47.40694242 8.6875 49.375 C22.04600687 52.86750892 34.03950677 56.85530948 42.3125 68.4375 C47.19252974 78.37184626 47.67091383 88.47739531 44.75 99.125 C41.59006688 108.32954386 36.67490179 114.4541825 28.1328125 119.15625 C8.06995698 128.27067744 -16.8996459 128.15024455 -37.6875 121.4375 C-46.71136117 117.90170824 -46.71136117 117.90170824 -49.6875 113.4375 C-50.12377662 109.61843141 -50.01169698 105.77878768 -50 101.9375 C-50.01611328 100.87917969 -50.03222656 99.82085938 -50.04882812 98.73046875 C-50.04947266 97.71597656 -50.05011719 96.70148438 -50.05078125 95.65625 C-50.05376221 94.72748047 -50.05674316 93.79871094 -50.05981445 92.84179688 C-49.6875 90.4375 -49.6875 90.4375 -48.3046875 88.60327148 C-46.6875 87.4375 -46.6875 87.4375 -44.44921875 87.56640625 C-40.40509125 88.84199385 -36.53825987 90.48851872 -32.65429688 92.17773438 C-23.92267118 95.82420604 -15.27840368 96.78384955 -5.875 96.75 C-4.50311523 96.77416992 -4.50311523 96.77416992 -3.10351562 96.79882812 C1.86395713 96.80244083 5.27539705 96.67209567 9.3125 93.4375 C10.69392556 92.27372098 10.69392556 92.27372098 10.5625 89.0625 C10.65376971 85.58764267 10.65376971 85.58764267 9.10546875 83.83447266 C3.23598478 79.26132624 -5.5671411 77.83858459 -12.63085938 75.90283203 C-38.92562188 68.67387256 -38.92562188 68.67387256 -46.6875 56.4375 C-51.52398164 45.50403725 -52.20677877 35.63200116 -48.15625 24.40625 C-43.00315304 13.99041571 -33.13643023 6.41895955 -22.33520508 2.60742188 C-14.8327295 0.37431277 -7.80114905 -0.06605726 0 0 Z " fill="#2B1E4C" transform="translate(536.6875,676.5625)"/>
<path d="M0 0 C0 50.82 0 101.64 0 154 C-15.26295645 154 -26.72888317 149.16050021 -37.8125 138.6875 C-50.12886774 125.71132684 -54.28826366 109.86065631 -54.37109375 92.43359375 C-54.38012222 91.24129654 -54.3891507 90.04899933 -54.39845276 88.8205719 C-54.4129056 86.30512989 -54.42182958 83.78965072 -54.42553711 81.27416992 C-54.4373889 77.47313145 -54.48659116 73.67374149 -54.53710938 69.87304688 C-54.67736781 48.88175267 -52.04259231 30.81651061 -36.6875 15.125 C-26.02600441 4.9892768 -14.77980361 0 0 0 Z " fill="#F8681F" transform="translate(303,393)"/>
<path d="M0 0 C15.85554465 0 25.86985941 4.22820964 37.2890625 15.19921875 C46.47862722 25.05993145 53.04957018 38.30400965 53.17700195 51.93920898 C53.19625481 53.73774574 53.19625481 53.73774574 53.21589661 55.57261658 C53.22328354 56.86736404 53.23067047 58.16211151 53.23828125 59.49609375 C53.24235678 60.16021837 53.2464323 60.82434299 53.25063133 61.50859261 C53.27147063 65.03135995 53.28577539 68.55408872 53.29516602 72.0769043 C53.30616038 75.68093687 53.3404836 79.28434004 53.38033772 82.88815212 C53.40675059 85.68779991 53.41487991 88.48730416 53.41844749 91.28706551 C53.42557021 93.25042215 53.45191023 95.2136797 53.47883606 97.17686462 C53.44067846 113.18552276 48.28808012 126.05241075 37.37890625 137.64453125 C26.53632225 148.38029176 15.33105121 153 0 153 C0 102.51 0 52.02 0 0 Z " fill="#F9681E" transform="translate(716,394)"/>
<path d="M0 0 C0.7027002 -0.00191345 1.40540039 -0.0038269 2.12939453 -0.00579834 C3.61556354 -0.00715975 5.10174445 -0.00346632 6.58789062 0.00488281 C8.86615646 0.01558346 11.14363377 0.00498661 13.421875 -0.0078125 C14.86458508 -0.0064909 16.30729466 -0.00392849 17.75 0 C19.06742188 0.00225586 20.38484375 0.00451172 21.7421875 0.00683594 C24.875 0.265625 24.875 0.265625 26.875 2.265625 C27.13226891 4.28092766 27.13226891 4.28092766 27.14242554 6.80709839 C27.15095551 7.76328064 27.15948547 8.71946289 27.16827393 9.70462036 C27.16736755 10.75712982 27.16646118 11.80963928 27.16552734 12.89404297 C27.17224457 13.99981689 27.17896179 15.10559082 27.18588257 16.24487305 C27.20494705 19.91589804 27.20879108 23.58674103 27.2109375 27.2578125 C27.21735969 29.80128048 27.22408761 32.34474771 27.23110962 34.88821411 C27.24310367 40.22644055 27.24687369 45.56459871 27.24560547 50.90283203 C27.24440421 57.07296073 27.26549987 63.24273953 27.2970928 69.41277969 C27.32639558 75.34694452 27.3335816 81.28100243 27.33238602 87.21524429 C27.33475091 89.74067743 27.34362403 92.26611297 27.35905075 94.79150009 C27.37858994 98.32077004 27.37291941 101.84913423 27.36083984 105.37841797 C27.37207886 106.42687897 27.38331787 107.47533997 27.39489746 108.55557251 C27.33341148 115.60512791 27.33341148 115.60512791 25.03642273 118.91471863 C22.02033547 120.79979712 19.78815556 120.76730522 16.24609375 120.76171875 C14.32313477 120.76268555 14.32313477 120.76268555 12.36132812 120.76367188 C11.3646814 120.74808228 11.3646814 120.74808228 10.34790039 120.73217773 C8.31509075 120.70316198 6.28488183 120.71158566 4.25195312 120.72460938 C-5.59267823 120.66020061 -5.59267823 120.66020061 -7.7853117 119.03494358 C-9.52323824 116.73967406 -9.49979179 115.41595602 -9.4992218 112.55247498 C-9.50623611 111.58361359 -9.51325043 110.6147522 -9.52047729 109.61653137 C-9.51283356 108.55512436 -9.50518982 107.49371735 -9.49731445 106.40014648 C-9.50096512 105.28126038 -9.50461578 104.16237427 -9.50837708 103.00958252 C-9.51649991 99.30180809 -9.50285848 95.59446827 -9.48828125 91.88671875 C-9.48776289 89.31746928 -9.48827965 86.74821941 -9.48979187 84.17897034 C-9.48970207 78.79120501 -9.4795933 73.40359976 -9.46118164 68.01586914 C-9.44000318 61.78272196 -9.43650637 55.54975898 -9.4427436 49.3165831 C-9.44843333 43.32419166 -9.44269282 37.33188227 -9.43157005 31.33949471 C-9.42771034 28.78730595 -9.42657301 26.23511164 -9.4281559 23.68292046 C-9.42852509 20.12240775 -9.4159475 16.56217918 -9.3996582 13.00170898 C-9.40213562 11.93827774 -9.40461304 10.8748465 -9.40716553 9.77919006 C-9.40008072 8.8131485 -9.39299591 7.84710693 -9.38569641 6.85179138 C-9.38364354 6.00948188 -9.38159067 5.16717237 -9.37947559 4.29933834 C-8.71806704 -0.98649431 -4.25619252 0.007288 0 0 Z " fill="#F9671E" transform="translate(828.125,679.734375)"/>
<path d="M0 0 C0.98178223 -0.00430527 0.98178223 -0.00430527 1.98339844 -0.00869751 C3.36524319 -0.01073618 4.74711693 -0.00521996 6.12890625 0.00732422 C8.2428445 0.02338314 10.35487113 0.00747149 12.46875 -0.01171875 C13.81250422 -0.00973628 15.15625724 -0.00589252 16.5 0 C17.72203125 0.00338379 18.9440625 0.00676758 20.203125 0.01025391 C23.25 0.3984375 23.25 0.3984375 24.91619968 1.63092041 C26.63783919 3.9123918 26.62939709 5.22392998 26.63768005 8.06689453 C26.64758469 9.02589661 26.65748932 9.98489868 26.66769409 10.97296143 C26.66094162 12.54868927 26.66094162 12.54868927 26.65405273 14.15625 C26.66091599 15.26377625 26.66777924 16.37130249 26.67485046 17.51239014 C26.69319112 21.1828687 26.68927079 24.85292284 26.68359375 28.5234375 C26.68815176 31.06787252 26.69345618 33.6123063 26.69947815 36.15673828 C26.70842336 41.49322078 26.70620248 46.82954771 26.69604492 52.16601562 C26.684559 58.33677085 26.69864554 64.5070917 26.7254414 70.67778969 C26.75024864 76.61251108 26.75278033 82.54709714 26.74632454 88.48187256 C26.74617077 91.00812503 26.75226079 93.53438565 26.76461601 96.06060791 C26.77943534 99.58761249 26.76891506 103.11365138 26.75170898 106.640625 C26.76137695 107.69111023 26.77104492 108.74159546 26.78100586 109.82391357 C26.77117172 110.78291565 26.76133759 111.74191772 26.75120544 112.72998047 C26.75099616 113.56399384 26.75078688 114.3980072 26.75057125 115.2572937 C26.25 117.3984375 26.25 117.3984375 24.40373325 119.16496277 C19.6875113 121.86601249 13.53712363 120.86513346 8.25 120.8359375 C6.96609375 120.85591797 5.6821875 120.87589844 4.359375 120.89648438 C3.12703125 120.89583984 1.8946875 120.89519531 0.625 120.89453125 C-0.50164063 120.89638428 -1.62828125 120.8982373 -2.7890625 120.90014648 C-5.75 120.3984375 -5.75 120.3984375 -7.90370178 119.040802 C-10.83864947 114.84039629 -10.29833696 110.62287981 -10.25170898 105.61889648 C-10.25711197 104.52097778 -10.26251495 103.42305908 -10.26808167 102.29187012 C-10.28059927 98.65915048 -10.26405793 95.02721858 -10.24609375 91.39453125 C-10.24624866 88.87394672 -10.24773622 86.35336195 -10.25050354 83.83277893 C-10.25188887 78.54929174 -10.23973913 73.26608324 -10.21655273 67.98266602 C-10.18992971 61.87385599 -10.18820055 55.76542571 -10.1999411 49.65657753 C-10.21071805 43.77897287 -10.20443262 37.90148415 -10.19038582 32.02388191 C-10.18586099 29.52276065 -10.18554347 27.02162821 -10.18945122 24.52050591 C-10.19235228 21.02963 -10.1759091 17.53938083 -10.15405273 14.04858398 C-10.15855438 13.00902054 -10.16305603 11.96945709 -10.16769409 10.89839172 C-10.15283714 9.47467758 -10.15283714 9.47467758 -10.13768005 8.02220154 C-10.13525016 7.19686133 -10.13282026 6.37152113 -10.13031673 5.52117062 C-9.11484169 -0.1466907 -4.97066124 0.0137637 0 0 Z " fill="#2A1D4B" transform="translate(607.75,679.6015625)"/>
<path d="M0 0 C5.28919097 3.10365734 8.49673705 7.2441174 10.4453125 13.08984375 C11.03315349 19.08582183 9.78646893 23.19633465 6.4453125 28.08984375 C2.66675996 32.18931445 -1.63251343 34.6748863 -7.16796875 35.4609375 C-13.990561 35.62878709 -18.34265667 34.5872226 -23.5546875 30.08984375 C-27.44763018 25.99200935 -29.29423513 22.39050636 -29.9296875 16.77734375 C-29.33763983 10.95554166 -27.30036974 6.74824187 -23.0546875 2.71484375 C-16.11454795 -1.79624695 -7.98729931 -2.84562804 0 0 Z " fill="#2B1E4B" transform="translate(625.5546875,632.91015625)"/>
<path d="M0 0 C5.23517379 1.98980659 8.81626898 5.06270237 11.5625 9.9375 C13.41804399 14.44382112 13.91084452 18.32887168 12.3046875 23.0390625 C9.70093359 28.88109859 6.27735465 32.08820978 0.75 35.3125 C-5.98675758 36.99668939 -12.14919055 36.73477054 -18.2421875 33.28125 C-21.63217532 30.81032554 -24.11725967 27.76548066 -26 24 C-26.50239048 18.49841245 -26.76205731 13.61204431 -24.375 8.5625 C-16.87190637 0.46705687 -11.10524649 -1.23125984 0 0 Z " fill="#F9661E" transform="translate(844,632)"/>
<path d="M0 0 C0.66 0.99 1.32 1.98 2 3 C1.34 3 0.68 3 0 3 C0 5.64 0 8.28 0 11 C1.65 11.33 3.3 11.66 5 12 C5.33 11.34 5.66 10.68 6 10 C8.96175123 10.61277612 10.38058783 11.25372522 13 13 C13 12.34 13 11.68 13 11 C13.99 11 14.98 11 16 11 C16.309375 10.05125 16.61875 9.1025 16.9375 8.125 C18 5 18 5 19 3 C19.66 3.33 20.32 3.66 21 4 C20.67386719 4.66644531 20.34773438 5.33289063 20.01171875 6.01953125 C19.57472656 6.94121094 19.13773437 7.86289062 18.6875 8.8125 C18.25824219 9.70582031 17.82898438 10.59914063 17.38671875 11.51953125 C13.71727863 20.72930913 12.56453469 29.08968662 12.671875 38.97265625 C12.67374817 40.17635361 12.67562134 41.38005096 12.67755127 42.620224 C12.68423404 45.14894407 12.6980724 47.67765447 12.71875 50.20629883 C12.74993881 54.05494934 12.75973366 57.90318859 12.765625 61.75195312 C12.7747959 64.22135911 12.78517195 66.69076097 12.796875 69.16015625 C12.80112488 70.29896744 12.80537476 71.43777863 12.80975342 72.61109924 C12.86748135 79.12984743 13.21111126 85.52773332 14 92 C10.99529039 87.49293558 10.8757351 84.13245027 10.88647461 78.76269531 C10.88655014 77.50169006 10.88662567 76.24068481 10.88670349 74.94146729 C10.89180972 73.57035279 10.8970257 72.19923869 10.90234375 70.828125 C10.90420972 69.42136689 10.90563278 68.01460812 10.90663147 66.60784912 C10.91044256 62.91219273 10.9202608 59.21657587 10.93133545 55.52093506 C10.94157986 51.74703506 10.94613558 47.97312865 10.95117188 44.19921875 C10.96188436 36.79946118 10.97894384 29.39973614 11 22 C10.566875 23.2065625 10.566875 23.2065625 10.125 24.4375 C9 27 9 27 7 28 C7.33 26.68 7.66 25.36 8 24 C7.01 23.67 6.02 23.34 5 23 C4.34 22.67 3.68 22.34 3 22 C2.67 22.66 2.34 23.32 2 24 C1.01 23.67 0.02 23.34 -1 23 C-0.34 22.34 0.32 21.68 1 21 C1.33128694 18.01290339 1.33128694 18.01290339 -0.4375 16.375 C-0.953125 15.92125 -1.46875 15.4675 -2 15 C-2.33 14.67 -2.66 14.34 -3 14 C-3.66 16.64 -4.32 19.28 -5 22 C-5.33 22 -5.66 22 -6 22 C-6.26977577 16.61831934 -5.45580194 12.65592698 -3.5625 7.625 C-3.11003906 6.40039062 -2.65757812 5.17578125 -2.19140625 3.9140625 C-1 1 -1 1 0 0 Z M1 5 C1.66 5.33 2.32 5.66 3 6 C2.01 6.66 1.02 7.32 0 8 C0.33 7.01 0.66 6.02 1 5 Z M-3 24 C-2.01 24.495 -2.01 24.495 -1 25 C-1.99 25.495 -1.99 25.495 -3 26 C-3 25.34 -3 24.68 -3 24 Z " fill="#1F1853" transform="translate(237,416)"/>
<path d="M0 0 C0.89589844 -0.01417969 1.79179688 -0.02835937 2.71484375 -0.04296875 C5.0625 0.1875 5.0625 0.1875 7.0625 2.1875 C3.7625 2.5175 0.4625 2.8475 -2.9375 3.1875 C-2.9375 46.0875 -2.9375 88.9875 -2.9375 133.1875 C-3.2675 133.1875 -3.5975 133.1875 -3.9375 133.1875 C-4.2675 138.4675 -4.5975 143.7475 -4.9375 149.1875 C-5.2675 149.1875 -5.5975 149.1875 -5.9375 149.1875 C-5.96082767 129.9079697 -5.97847853 110.62844226 -5.98931217 91.34890079 C-5.99447541 82.39771618 -6.00151863 73.44654032 -6.01293945 64.49536133 C-6.02288545 56.69639612 -6.02935322 48.89743724 -6.03158849 41.09846586 C-6.03289575 36.96637814 -6.03598251 32.83430856 -6.04323006 28.70222664 C-6.04998894 24.81748474 -6.05211723 20.93276854 -6.05060768 17.04802132 C-6.05088407 15.61810161 -6.05288998 14.18818109 -6.05670547 12.75826645 C-6.06164059 10.81431949 -6.05989805 8.87035891 -6.05775452 6.92640686 C-6.05867631 5.83592576 -6.0595981 4.74544466 -6.06054783 3.62191868 C-5.84188224 -0.70423321 -3.84327234 0.0275701 0 0 Z " fill="#E1D7D0" transform="translate(532.9375,306.8125)"/>
<path d="M0 0 C0.66 0.33 1.32 0.66 2 1 C1.34 1.66 0.68 2.32 0 3 C-0.30363439 5.11735489 -0.30363439 5.11735489 -0.25396729 7.59289551 C-0.25960693 8.56038223 -0.26524658 9.52786896 -0.27105713 10.52467346 C-0.26700867 11.58967575 -0.26296021 12.65467804 -0.25878906 13.75195312 C-0.2622937 14.87069321 -0.26579834 15.98943329 -0.26940918 17.14207458 C-0.27824113 20.85519542 -0.2723721 24.56812709 -0.265625 28.28125 C-0.26697123 30.85192909 -0.2689114 33.42260792 -0.27142334 35.99328613 C-0.27437659 41.38698986 -0.27026009 46.78062195 -0.26074219 52.17431641 C-0.24985732 58.41481998 -0.25338279 64.65519289 -0.264395 70.8956933 C-0.27455526 76.89287788 -0.27349169 82.88999839 -0.26763153 88.88719177 C-0.26629352 91.44217446 -0.26794799 93.99716046 -0.27259064 96.55213928 C-0.27764687 100.11753281 -0.26995819 103.68267235 -0.25878906 107.24804688 C-0.26283752 108.31304916 -0.26688599 109.37805145 -0.27105713 110.47532654 C-0.26541748 111.44281326 -0.25977783 112.41029999 -0.25396729 113.40710449 C-0.25321323 114.25071281 -0.25245918 115.09432114 -0.25168228 115.96349335 C-0.1840117 118.22601478 -0.1840117 118.22601478 2 120 C5.00972657 120.37296556 5.00972657 120.37296556 8.5390625 120.4140625 C10.49199219 120.47207031 10.49199219 120.47207031 12.484375 120.53125 C13.86457862 120.56270763 15.24478704 120.59395491 16.625 120.625 C18.01304541 120.66317934 19.40106711 120.70223105 20.7890625 120.7421875 C24.19257185 120.83672943 27.59607165 120.92227897 31 121 C31 121.33 31 121.66 31 122 C26.60527764 122.25535631 22.2094726 122.47470713 17.8125 122.6875 C16.56662109 122.76033203 15.32074219 122.83316406 14.03710938 122.90820312 C12.83505859 122.96298828 11.63300781 123.01777344 10.39453125 123.07421875 C9.28956299 123.13182373 8.18459473 123.18942871 7.04614258 123.2487793 C3.4826643 122.95774905 1.76841921 122.24905587 -1 120 C-3.71158384 115.21282198 -3.3286463 110.0655252 -3.36645508 104.72119141 C-3.38131958 103.68807327 -3.39618408 102.65495514 -3.41149902 101.5905304 C-3.45765396 98.17758089 -3.48927942 94.76468754 -3.51953125 91.3515625 C-3.54586867 88.97650704 -3.57262322 86.60145618 -3.59977722 84.22640991 C-3.65420029 79.24831204 -3.70098283 74.27021025 -3.74291992 69.29199219 C-3.79759554 62.91740412 -3.87510317 56.54332532 -3.95886707 50.16906166 C-4.02012742 45.2637658 -4.06724692 40.35840899 -4.11032677 35.45292282 C-4.1330399 33.10297885 -4.16060057 30.75307649 -4.19312477 28.40324783 C-4.23691329 25.1146376 -4.26115525 21.82643028 -4.28051758 18.53759766 C-4.29751205 17.57009079 -4.31450653 16.60258392 -4.33201599 15.60575867 C-4.34079235 9.94617351 -3.66971649 6.01796274 -1 1 C-0.67 0.67 -0.34 0.34 0 0 Z " fill="#FAFBF6" transform="translate(820,679)"/>
<path d="M0 0 C0.66 0 1.32 0 2 0 C1.99476318 0.86802246 1.98952637 1.73604492 1.98413086 2.63037109 C1.96710138 5.84700273 1.95455592 9.06361141 1.94506836 12.28027344 C1.9400357 13.67318477 1.93320902 15.0660908 1.92456055 16.45898438 C1.91244848 18.45961246 1.90729588 20.46027888 1.90234375 22.4609375 C1.89710693 23.66540527 1.89187012 24.86987305 1.88647461 26.11083984 C1.79912109 28.9413677 1.79912109 28.9413677 3 31 C2.8951308 32.39154784 2.7278088 33.7785747 2.53125 35.16015625 C1.81249827 41.5839998 2.12470033 47.903913 2.40921021 54.34960938 C2.95740474 66.95642535 3.05438882 79.41221967 2 92 C6.95 91.505 6.95 91.505 12 91 C12 91.66 12 92.32 12 93 C10 94 10 94 0 94 C0 62.98 0 31.96 0 0 Z " fill="#FB751C" transform="translate(716,453)"/>
<path d="M0 0 C4.52065428 -0.049377 9.04115217 -0.08570823 13.56201172 -0.10986328 C15.10045098 -0.11993118 16.63887107 -0.13358646 18.17724609 -0.15087891 C20.38644133 -0.17509317 22.59538395 -0.18647491 24.8046875 -0.1953125 C25.49432587 -0.20563507 26.18396423 -0.21595764 26.89450073 -0.22659302 C28.59800906 -0.22699478 30.30085943 -0.12191026 32 0 C34 2 34 2 34.24609566 3.99524117 C34.24333028 5.23136556 34.24333028 5.23136556 34.24050903 6.49246216 C34.24325836 7.43759674 34.24600769 8.38273132 34.24884033 9.35650635 C34.24164978 10.39659851 34.23445923 11.43669067 34.22705078 12.50830078 C34.22734283 13.60099274 34.22763489 14.69368469 34.22793579 15.81948853 C34.22653825 19.44484292 34.21095699 23.06999385 34.1953125 26.6953125 C34.19158388 29.20352059 34.1887362 31.71173012 34.18673706 34.21994019 C34.17987119 40.15562286 34.16409528 46.09123984 34.14403808 52.02688873 C34.11951013 59.44629818 34.1087526 66.86571665 34.09765625 74.28515625 C34.07618515 87.52347486 34.04241739 100.76173279 34 114 C33.67 114 33.34 114 33 114 C32.98969254 113.16300568 32.97938507 112.32601135 32.96876526 111.46365356 C32.86991659 103.49305575 32.76729593 95.52251671 32.66066074 87.55201912 C32.6059938 83.4564141 32.55267803 79.36080167 32.50268555 75.26513672 C32.45419465 71.29688526 32.4018475 67.32870018 32.34705925 63.36053085 C32.32701123 61.86265641 32.30824745 60.36476408 32.29092598 58.86685562 C32.1867255 49.94355739 31.90157431 41.05497193 31.34816837 32.14724922 C30.95203335 25.7200796 30.88321563 19.31396175 30.9375 12.875 C30.94201172 11.81152344 30.94652344 10.74804688 30.95117188 9.65234375 C30.96266219 7.10149481 30.97888961 4.55078411 31 2 C26.76417673 1.95061372 22.52850535 1.91428737 18.29248047 1.89013672 C16.85104453 1.88007037 15.40962905 1.8664162 13.96826172 1.84912109 C11.89806066 1.82489988 9.82812924 1.81352359 7.7578125 1.8046875 C6.5114502 1.79421387 5.26508789 1.78374023 3.98095703 1.77294922 C0.88228369 1.68347508 0.88228369 1.68347508 -1 4 C-0.67 2.68 -0.34 1.36 0 0 Z " fill="#FA4A06" transform="translate(821,680)"/>
<path d="M0 0 C12.07928201 5.08765625 23.57596931 17.0888286 29 29 C28.67 29.66 28.34 30.32 28 31 C27.01 31.33 26.02 31.66 25 32 C25.185625 31.38125 25.37125 30.7625 25.5625 30.125 C26.23686176 27.95839822 26.23686176 27.95839822 25 26 C24.34 26 23.68 26 23 26 C22.67 26.66 22.34 27.32 22 28 C20.35 27.67 18.7 27.34 17 27 C17 24 17 24 19 21 C18.75458192 15.86756109 14.15011657 12.758711 10.72265625 9.41015625 C7.35616034 6.43005872 3.8575954 4.28598246 0 2 C0 1.34 0 0.68 0 0 Z " fill="#1D153D" transform="translate(751,383)"/>
<path d="M0 0 C2.9375 0.25 2.9375 0.25 6 1 C8 4 8 4 8 7 C4.16073081 13.45695273 -3.95275262 17.79420026 -11 20 C-13.3125 19.625 -13.3125 19.625 -15 19 C-13.75283203 18.51080078 -13.75283203 18.51080078 -12.48046875 18.01171875 C-10.85044922 17.35623047 -10.85044922 17.35623047 -9.1875 16.6875 C-8.10855469 16.25824219 -7.02960937 15.82898438 -5.91796875 15.38671875 C-3.30217259 14.14360277 -1.74034278 13.27771177 0 11 C0 10.34 0 9.68 0 9 C-0.66 8.67 -1.32 8.34 -2 8 C-1.0022242 5.00667261 -0.2477975 4.05233685 2 2 C1.01 1.67 0.02 1.34 -1 1 C-0.67 0.67 -0.34 0.34 0 0 Z " fill="#241942" transform="translate(568,779)"/>
<path d="M0 0 C0.66 0.33 1.32 0.66 2 1 C2 2.32 2 3.64 2 5 C3.32 5 4.64 5 6 5 C6 4.01 6 3.02 6 2 C7.65 1.34 9.3 0.68 11 0 C11.66 1.32 12.32 2.64 13 4 C12.01 4.66 11.02 5.32 10 6 C10 5.34 10 4.68 10 4 C9.01 4.495 9.01 4.495 8 5 C8 5.66 8 6.32 8 7 C8.66 7 9.32 7 10 7 C10 7.66 10 8.32 10 9 C10.70511719 9.22429687 11.41023437 9.44859375 12.13671875 9.6796875 C15.60043784 11.27687311 18.0852508 13.52519235 20.8125 16.125 C21.56563477 16.82689453 21.56563477 16.82689453 22.33398438 17.54296875 C23.56189455 18.68901825 24.78178215 19.84365311 26 21 C25.67 21.66 25.34 22.32 25 23 C24.43345703 22.36384766 24.43345703 22.36384766 23.85546875 21.71484375 C15.44559927 12.75350742 5.49999651 7.96740738 -6 4 C-3.92446352 3.4465236 -2.15634036 3 0 3 C0 2.01 0 1.02 0 0 Z " fill="#1E1652" transform="translate(731,390)"/>
<path d="M0 0 C9.56540155 7.73372891 16.98344651 16.94357728 24 27 C23.67 27.66 23.34 28.32 23 29 C19.7 24.71 16.4 20.42 13 16 C11.35 16.66 9.7 17.32 8 18 C5.1875 17.625 5.1875 17.625 3 17 C4.2509564 14.49808719 6.02989568 12.97010432 8 11 C6.01939905 8.45351307 4.06550155 6.06368206 1.75 3.8125 C0 2 0 2 0 0 Z " fill="#1F163C" transform="translate(676,227)"/>
<path d="M0 0 C0 0.33 0 0.66 0 1 C-1.07378906 1.04898438 -2.14757812 1.09796875 -3.25390625 1.1484375 C-4.69012642 1.22353398 -6.12632319 1.29907876 -7.5625 1.375 C-8.26697266 1.4059375 -8.97144531 1.436875 -9.69726562 1.46875 C-15.90240531 1.81189137 -21.78570489 2.58264541 -26.75 6.625 C-29.68786127 9 -29.68786127 9 -33 9 C-33.93423645 5.98968256 -34.04449911 5.13349732 -33 2 C-22.05836843 -0.53718993 -11.16266152 -0.20392721 0 0 Z " fill="#20163F" transform="translate(505,158)"/>
<path d="M0 0 C0 0.99 0 1.98 0 3 C0.20625 3.78375 0.4125 4.5675 0.625 5.375 C1.07483807 8.52386652 0.37093942 10.17747766 -1 13 C-1.99 13 -2.98 13 -4 13 C-4.7115625 13.99 -4.7115625 13.99 -5.4375 15 C-5.953125 15.66 -6.46875 16.32 -7 17 C-8.32 17 -9.64 17 -11 17 C-11 12.97168827 -8.99947426 10.97842946 -6.625 7.9375 C-6.2125 7.39544922 -5.8 6.85339844 -5.375 6.29492188 C-3.67449833 4.07604147 -1.97863124 1.97863124 0 0 Z " fill="#221742" transform="translate(332,239)"/>
<path d="M0 0 C1.09445938 0.00212242 1.09445938 0.00212242 2.21102905 0.00428772 C4.54437335 0.00989094 6.87762214 0.0224439 9.2109375 0.03515625 C10.79166528 0.04017084 12.37239457 0.04473382 13.953125 0.04882812 C17.83076604 0.05986141 21.70833557 0.07712814 25.5859375 0.09765625 C25.5859375 0.75765625 25.5859375 1.41765625 25.5859375 2.09765625 C14.6959375 2.09765625 3.8059375 2.09765625 -7.4140625 2.09765625 C-7.4140625 3.08765625 -7.4140625 4.07765625 -7.4140625 5.09765625 C-8.4040625 5.42765625 -9.3940625 5.75765625 -10.4140625 6.09765625 C-10.0390625 3.66015625 -10.0390625 3.66015625 -9.4140625 1.09765625 C-6.40193221 -0.4084089 -3.30123628 -0.02394706 0 0 Z " fill="#F9560F" transform="translate(779.4140625,635.90234375)"/>
<path d="M0 0 C0.598125 0.185625 1.19625 0.37125 1.8125 0.5625 C4.16408762 1.22093687 4.16408762 1.22093687 7 0 C7.33 0.99 7.66 1.98 8 3 C7.34 3 6.68 3 6 3 C6.33 3.99 6.66 4.98 7 6 C5.78515625 7.82421875 5.78515625 7.82421875 4.0625 9.6875 C3.21365234 10.62142578 3.21365234 10.62142578 2.34765625 11.57421875 C1.90292969 12.04472656 1.45820313 12.51523437 1 13 C0.67 12.01 0.34 11.02 0 10 C-0.77321882 12.98241547 -1.41196203 15.97580475 -2 19 C-2.33 19 -2.66 19 -3 19 C-3.45510807 12.32508169 -1.7672426 6.40625443 0 0 Z " fill="#231842" transform="translate(285,331)"/>
<path d="M0 0 C1.43352212 0.00015908 2.86704998 0.00585132 4.30053711 0.01586914 C5.43041298 0.01799156 5.43041298 0.01799156 6.58311462 0.02015686 C8.99807646 0.02577163 11.41294687 0.03832656 13.82788086 0.05102539 C15.46134307 0.05603849 17.09480672 0.06060173 18.72827148 0.06469727 C22.74067671 0.07574585 26.75301326 0.09302033 30.76538086 0.11352539 C30.76538086 0.77352539 30.76538086 1.43352539 30.76538086 2.11352539 C14.43038086 2.60852539 14.43038086 2.60852539 -2.23461914 3.11352539 C-2.89461914 4.43352539 -3.55461914 5.75352539 -4.23461914 7.11352539 C-4.2771627 5.11397793 -4.27542697 3.11310903 -4.23461914 1.11352539 C-3.23461914 0.11352539 -3.23461914 0.11352539 0 0 Z " fill="#FA5108" transform="translate(649.234619140625,635.886474609375)"/>
<path d="M0 0 C2.9375 1.125 2.9375 1.125 6 3 C6.97636076 6.18944514 7.51413749 7.97172501 6 11 C5.236875 10.67 4.47375 10.34 3.6875 10 C1.00930865 8.82563314 1.00930865 8.82563314 -2 9 C-2.66 10.98 -3.32 12.96 -4 15 C-4.33 15 -4.66 15 -5 15 C-4.5188509 9.22621075 -2.81532819 5.04140164 0 0 Z M6 1 C6.99 1.495 6.99 1.495 8 2 C7.01 2.495 7.01 2.495 6 3 C6 2.34 6 1.68 6 1 Z " fill="#261B46" transform="translate(416,450)"/>
<path d="M0 0 C1.70001479 5.10004437 -1.53191783 9.42137104 -3.6875 14.125 C-4.13544922 15.15238281 -4.58339844 16.17976562 -5.04492188 17.23828125 C-5.48771484 18.21410156 -5.93050781 19.18992187 -6.38671875 20.1953125 C-6.79108154 21.09266113 -7.19544434 21.99000977 -7.61206055 22.91455078 C-9 25 -9 25 -11.03833008 25.80029297 C-13 26 -13 26 -15 26 C-15.33 23.69 -15.66 21.38 -16 19 C-12.98968256 18.06576355 -12.13349732 17.95550089 -9 19 C-6.03 12.73 -3.06 6.46 0 0 Z " fill="#1F163F" transform="translate(289,714)"/>
<path d="M0 0 C2.9272625 3.80544125 5.84864746 7.69729493 8 12 C7.34 11.62875 6.68 11.2575 6 10.875 C1.75168704 9.63590872 -0.80035936 10.7187537 -5 12 C-5.87840996 8.90279155 -5.99435406 7.09354597 -5 4 C-3.68 3.67 -2.36 3.34 -1 3 C-1 3.66 -1 4.32 -1 5 C-0.34 5 0.32 5 1 5 C0.67 3.35 0.34 1.7 0 0 Z " fill="#241845" transform="translate(393,758)"/>
<path d="M0 0 C4.58321382 -0.08704 9.16621534 -0.14040632 13.75 -0.1875 C15.05195313 -0.21263672 16.35390625 -0.23777344 17.6953125 -0.26367188 C19.57089844 -0.27817383 19.57089844 -0.27817383 21.484375 -0.29296875 C22.63647461 -0.3086792 23.78857422 -0.32438965 24.97558594 -0.34057617 C28.26758786 0.0301328 29.60695077 0.77384798 32 3 C31.44650879 2.99476318 30.89301758 2.98952637 30.32275391 2.98413086 C16.13116492 2.84390928 16.13116492 2.84390928 2 4 C1.34 4 0.68 4 0 4 C0 2.68 0 1.36 0 0 Z " fill="#34264F" transform="translate(495,157)"/>
<path d="M0 0 C3.3 0 6.6 0 10 0 C10.66 0.66 11.32 1.32 12 2 C8.7 2.33 5.4 2.66 2 3 C2 14.22 2 25.44 2 37 C1.67 37 1.34 37 1 37 C0.67 24.79 0.34 12.58 0 0 Z " fill="#EBE2DA" transform="translate(528,307)"/>
<path d="M0 0 C1.24523437 0.01804687 2.49046875 0.03609375 3.7734375 0.0546875 C5.18496094 0.08949219 5.18496094 0.08949219 6.625 0.125 C6.625 0.785 6.625 1.445 6.625 2.125 C0.19 2.62 0.19 2.62 -6.375 3.125 C-6.045 4.115 -5.715 5.105 -5.375 6.125 C-6.695 6.455 -8.015 6.785 -9.375 7.125 C-9.375 8.115 -9.375 9.105 -9.375 10.125 C-10.035 10.125 -10.695 10.125 -11.375 10.125 C-11.045 7.815 -10.715 5.505 -10.375 3.125 C-12.355 3.785 -14.335 4.445 -16.375 5.125 C-12.15955641 -0.02720883 -6.24143924 -0.117763 0 0 Z " fill="#1A113C" transform="translate(336.375,354.875)"/>
<path d="M0 0 C1.65 1.32 3.3 2.64 5 4 C5.99 3.01 6.98 2.02 8 1 C10.15648591 4.77385034 10 7.69031271 10 12 C12.32601524 14.06102121 12.32601524 14.06102121 15 16 C16.0173873 16.98230498 17.02596117 17.97469597 18 19 C11.05001059 17.61000212 6.52571257 12.63335747 2.6015625 6.98828125 C0 2.58776596 0 2.58776596 0 0 Z " fill="#1C143B" transform="translate(362,778)"/>
<path d="M0 0 C6.6 0 13.2 0 20 0 C20.33 0.99 20.66 1.98 21 3 C19.35 3 17.7 3 16 3 C15.67 4.65 15.34 6.3 15 8 C14.34 8 13.68 8 13 8 C13 8.66 13 9.32 13 10 C12.34 10 11.68 10 11 10 C10.4375 8.0625 10.4375 8.0625 10 6 C11 5 11 5 14 4 C13.15695312 3.96261719 12.31390625 3.92523437 11.4453125 3.88671875 C10.34960938 3.82097656 9.25390625 3.75523437 8.125 3.6875 C6.48917969 3.60048828 6.48917969 3.60048828 4.8203125 3.51171875 C3.88960937 3.34285156 2.95890625 3.17398438 2 3 C1.34 2.01 0.68 1.02 0 0 Z " fill="#322453" transform="translate(517,774)"/>
<path d="M0 0 C1.01537842 -0.01377686 1.01537842 -0.01377686 2.05126953 -0.02783203 C6.33913814 -0.00155189 9.82667704 0.68790453 13.8125 2.25 C10.83431366 3.13099735 8.35957135 3.31705164 5.265625 3.12890625 C4.42128906 3.08056641 3.57695313 3.03222656 2.70703125 2.98242188 C1.83433594 2.92634766 0.96164062 2.87027344 0.0625 2.8125 C-0.82566406 2.76029297 -1.71382812 2.70808594 -2.62890625 2.65429688 C-4.81549196 2.52498267 -7.00157894 2.39003358 -9.1875 2.25 C-9.1875 3.24 -9.1875 4.23 -9.1875 5.25 C-9.8475 5.25 -10.5075 5.25 -11.1875 5.25 C-11.1875 4.59 -11.1875 3.93 -11.1875 3.25 C-13.8275 3.58 -16.4675 3.91 -19.1875 4.25 C-14.41840282 -0.51909718 -6.35861076 0.04811606 0 0 Z " fill="#231B41" transform="translate(680.1875,353.75)"/>
<path d="M0 0 C3.05227053 3.05227053 3.84346654 6.83341231 5.1875 10.875 C5.47302734 11.69097656 5.75855469 12.50695312 6.05273438 13.34765625 C6.31763672 14.13785156 6.58253906 14.92804687 6.85546875 15.7421875 C7.09934326 16.4626123 7.34321777 17.18303711 7.59448242 17.92529297 C8 20 8 20 7 24 C5.35 20.04 3.7 16.08 2 12 C1.01 12.495 1.01 12.495 0 13 C-0.66 12.34 -1.32 11.68 -2 11 C-1.67 10.484375 -1.34 9.96875 -1 9.4375 C0.32010877 6.21973488 0.13242105 3.4429472 0 0 Z " fill="#F95714" transform="translate(704,696)"/>
<path d="M0 0 C0.33 0 0.66 0 1 0 C1.13277344 0.62648438 1.26554688 1.25296875 1.40234375 1.8984375 C1.57894531 2.71570313 1.75554688 3.53296875 1.9375 4.375 C2.11152344 5.18710937 2.28554688 5.99921875 2.46484375 6.8359375 C2.92330693 9.029463 2.92330693 9.029463 4 11 C4.66 10.34 5.32 9.68 6 9 C6.99 8.67 7.98 8.34 9 8 C8.625 10.9375 8.625 10.9375 8 14 C7.01 14.495 7.01 14.495 6 15 C6.99 15.66 7.98 16.32 9 17 C9 17.66 9 18.32 9 19 C10.29352333 20.69774938 11.62517293 22.36739286 13 24 C7.15627965 21.51357903 3.79822485 16.03733594 1.125 10.4375 C-0.07911881 6.75824807 -0.23545893 3.84582924 0 0 Z " fill="#181036" transform="translate(645,550)"/>
<path d="M0 0 C7.82692308 7.40384615 7.82692308 7.40384615 8.1875 12.8125 C8.125625 13.534375 8.06375 14.25625 8 15 C6.02 14.34 4.04 13.68 2 13 C2.33 12.34 2.66 11.68 3 11 C2.34 10.67 1.68 10.34 1 10 C1 9.34 1 8.68 1 8 C0.01 7.67 -0.98 7.34 -2 7 C-0.35 6.67 1.3 6.34 3 6 C2.2575 5.071875 2.2575 5.071875 1.5 4.125 C0 2 0 2 0 0 Z " fill="#211841" transform="translate(365,364)"/>
<path d="M0 0 C1.48828125 1.14453125 1.48828125 1.14453125 3 3 C3.29296875 5.69921875 3.29296875 5.69921875 3.1875 8.6875 C3.16042969 9.68136719 3.13335937 10.67523437 3.10546875 11.69921875 C3.07066406 12.45847656 3.03585938 13.21773437 3 14 C2.34 13.67 1.68 13.34 1 13 C1 12.01 1 11.02 1 10 C0.195625 9.773125 -0.60875 9.54625 -1.4375 9.3125 C-2.7059375 8.6628125 -2.7059375 8.6628125 -4 8 C-4.8125 5.375 -4.8125 5.375 -5 3 C-4.34 2.67 -3.68 2.34 -3 2 C-2.01 1.34 -1.02 0.68 0 0 Z " fill="#221743" transform="translate(192,774)"/>
<path d="M0 0 C0.66 0.33 1.32 0.66 2 1 C1.9375 3.8125 1.9375 3.8125 1 7 C-2.4375 8.8125 -2.4375 8.8125 -6 10 C-6.99 10.495 -6.99 10.495 -8 11 C-8.33 9.68 -8.66 8.36 -9 7 C-6.03 4.69 -3.06 2.38 0 0 Z " fill="#231943" transform="translate(374,200)"/>
<path d="M0 0 C0.556875 0.185625 1.11375 0.37125 1.6875 0.5625 C4.04649928 1.16538351 4.04649928 1.16538351 6.5625 0.4375 C9 0 9 0 12 2 C10.54550599 3.0055761 9.08627557 4.00430435 7.625 5 C6.40683594 5.8353125 6.40683594 5.8353125 5.1640625 6.6875 C3 8 3 8 1 8 C0.67 5.36 0.34 2.72 0 0 Z " fill="#2D1C4E" transform="translate(271,395)"/>
<path d="M0 0 C-0.639375 0.61875 -1.27875 1.2375 -1.9375 1.875 C-4.03883584 3.82597612 -4.03883584 3.82597612 -5 6 C-4.34 6.33 -3.68 6.66 -3 7 C-4.65 7.33 -6.3 7.66 -8 8 C-8.66 6.68 -9.32 5.36 -10 4 C-9.67 3.67 -9.34 3.34 -9 3 C-13.455 3.495 -13.455 3.495 -18 4 C-12.64766505 0.4317767 -6.36973531 -0.32665309 0 0 Z " fill="#211741" transform="translate(471,161)"/>
<path d="M0 0 C0 3 0 3 -1.5 4.6875 C-1.995 5.120625 -2.49 5.55375 -3 6 C-2.67 6.99 -2.34 7.98 -2 9 C-2.66 9 -3.32 9 -4 9 C-4.33 9.66 -4.66 10.32 -5 11 C-5.66 10.01 -6.32 9.02 -7 8 C-9.05925139 7.27617533 -9.05925139 7.27617533 -11 7 C-9.87720538 6.01830524 -8.75168527 5.03972702 -7.625 4.0625 C-6.68527344 3.24458984 -6.68527344 3.24458984 -5.7265625 2.41015625 C-3.71547429 0.76761588 -2.62199195 0 0 0 Z " fill="#241A43" transform="translate(508,683)"/>
<path d="M0 0 C0.66 0.99 1.32 1.98 2 3 C1.34 3 0.68 3 0 3 C0.0928125 4.8871875 0.0928125 4.8871875 0.1875 6.8125 C0.19443785 10.78788599 0.19443785 10.78788599 -1.375 12.5 C-1.91125 12.995 -2.4475 13.49 -3 14 C-3.87390976 16.64291497 -4.41830216 19.27049474 -5 22 C-5.33 22 -5.66 22 -6 22 C-6.26977577 16.61831934 -5.45580194 12.65592698 -3.5625 7.625 C-3.11003906 6.40039062 -2.65757812 5.17578125 -2.19140625 3.9140625 C-1 1 -1 1 0 0 Z M1 5 C1.66 5.33 2.32 5.66 3 6 C2.01 6.66 1.02 7.32 0 8 C0.33 7.01 0.66 6.02 1 5 Z " fill="#1B143C" transform="translate(237,416)"/>
<path d="M0 0 C-0.06640625 2.1953125 -0.06640625 2.1953125 -1 5 C-3.30891355 6.86230954 -5.42267166 8.35962277 -7.9375 9.875 C-8.58396484 10.29007813 -9.23042969 10.70515625 -9.89648438 11.1328125 C-11.55259462 12.16465689 -13.27311551 13.0915541 -15 14 C-15.66 13.67 -16.32 13.34 -17 13 C-16.2059375 12.52949219 -15.411875 12.05898437 -14.59375 11.57421875 C-13.06234375 10.64029297 -13.06234375 10.64029297 -11.5 9.6875 C-9.96859375 8.76517578 -9.96859375 8.76517578 -8.40625 7.82421875 C-7.21515625 6.92123047 -7.21515625 6.92123047 -6 6 C-6 5.01 -6 4.02 -6 3 C-3.9398797 0.3512739 -3.48011144 0 0 0 Z " fill="#1F163E" transform="translate(413,212)"/>
<path d="M0 0 C1.47965926 0.14573058 2.96403843 0.24663268 4.44921875 0.31640625 C5.29677734 0.35830078 6.14433594 0.40019531 7.01757812 0.44335938 C7.89865234 0.48267578 8.77972656 0.52199219 9.6875 0.5625 C11.02651367 0.62727539 11.02651367 0.62727539 12.39257812 0.69335938 C14.59490108 0.79935353 16.79733473 0.90142051 19 1 C19 1.33 19 1.66 19 2 C6.13 2 -6.74 2 -20 2 C-20 1.67 -20 1.34 -20 1 C-19.02417969 0.93941406 -18.04835938 0.87882813 -17.04296875 0.81640625 C-15.77066406 0.73261719 -14.49835938 0.64882812 -13.1875 0.5625 C-11.92292969 0.48128906 -10.65835937 0.40007812 -9.35546875 0.31640625 C-1.323049 -0.44101633 -1.323049 -0.44101633 0 0 Z " fill="#FDFDF8" transform="translate(510,155)"/>
<path d="M0 0 C0.45375 0.639375 0.9075 1.27875 1.375 1.9375 C2.83921726 4.09702406 2.83921726 4.09702406 5 5 C6.66619446 5.0396713 8.33391013 5.04384447 10 5 C6.74582055 6.79567975 3.53428471 7.77381863 -0.0625 8.6875 C-1.62677734 9.09548828 -1.62677734 9.09548828 -3.22265625 9.51171875 C-6 10 -6 10 -9 9 C-6.69 8.01 -4.38 7.02 -2 6 C-2.66 4.35 -3.32 2.7 -4 1 C-2.68 1.33 -1.36 1.66 0 2 C0 1.34 0 0.68 0 0 Z " fill="#1C123B" transform="translate(460,190)"/>
<path d="M0 0 C0.66 0 1.32 0 2 0 C1.67 1.65 1.34 3.3 1 5 C-7.58 5 -16.16 5 -25 5 C-25 4.67 -25 4.34 -25 4 C-19.39 4 -13.78 4 -8 4 C-7.67 3.01 -7.34 2.02 -7 1 C-6.67 1.66 -6.34 2.32 -6 3 C-5.01 3.33 -4.02 3.66 -3 4 C-3 3.34 -3 2.68 -3 2 C-2.01 2 -1.02 2 0 2 C0 1.34 0 0.68 0 0 Z " fill="#332554" transform="translate(630,793)"/>
<path d="M0 0 C0.66 0.33 1.32 0.66 2 1 C0.41906946 2.12837409 -1.16484716 3.25256518 -2.75 4.375 C-3.63171875 5.00148438 -4.5134375 5.62796875 -5.421875 6.2734375 C-11.13539192 10.09976247 -11.13539192 10.09976247 -15.25 9.625 C-16.61125 9.315625 -16.61125 9.315625 -18 9 C-17.67 7.35 -17.34 5.7 -17 4 C-16.34 4 -15.68 4 -15 4 C-14.67 5.32 -14.34 6.64 -14 8 C-12.41416752 7.23432134 -10.83143506 6.46222035 -9.25 5.6875 C-8.36828125 5.25824219 -7.4865625 4.82898438 -6.578125 4.38671875 C-4.18399785 3.09896854 -2.12223042 1.69084246 0 0 Z " fill="#20183E" transform="translate(758,552)"/>
<path d="M0 0 C5.95507399 0.3916035 10.62819824 1.37124595 16 4 C12.95781049 5.01406317 10.18819752 5.66083005 7 6 C6.34 5.34 5.68 4.68 5 4 C5.33 3.34 5.66 2.68 6 2 C3.03 1.505 3.03 1.505 0 1 C0 0.67 0 0.34 0 0 Z M4 6 C4.99 6.33 5.98 6.66 7 7 C5.68 7.33 4.36 7.66 3 8 C3.33 7.34 3.66 6.68 4 6 Z " fill="#1F153C" transform="translate(555,679)"/>
<path d="M0 0 C1.95803507 -0.05389087 3.91648909 -0.09274217 5.875 -0.125 C7.51082031 -0.15980469 7.51082031 -0.15980469 9.1796875 -0.1953125 C12 0 12 0 14 2 C14.125 5.625 14.125 5.625 14 9 C12.68 8.34 11.36 7.68 10 7 C10 5.02 10 3.04 10 1 C7.36 1.66 4.72 2.32 2 3 C1.34 2.01 0.68 1.02 0 0 Z " fill="#342553" transform="translate(455,681)"/>
<path d="M0 0 C1.8454602 3.11421408 2.46369062 5.38321316 2 9 C0.5 10.8125 0.5 10.8125 -1 12 C-1.33 11.01 -1.66 10.02 -2 9 C-2.99 9.495 -2.99 9.495 -4 10 C-4.66 9.34 -5.32 8.68 -6 8 C-5.34 7.01 -4.68 6.02 -4 5 C-3.34 5.33 -2.68 5.66 -2 6 C-1.855625 5.195625 -1.71125 4.39125 -1.5625 3.5625 C-1 1 -1 1 0 0 Z " fill="#342653" transform="translate(198,720)"/>
<path d="M0 0 C1.32 0.33 2.64 0.66 4 1 C4 1.66 4 2.32 4 3 C4.66 3.66 5.32 4.32 6 5 C5 6 5 6 1.75 6.125 C-1.33603789 6.02213207 -4.01424114 5.72382033 -7 5 C-7 4.67 -7 4.34 -7 4 C-4.69 4 -2.38 4 0 4 C0 2.68 0 1.36 0 0 Z " fill="#211742" transform="translate(545,189)"/>
<path d="M0 0 C0.66 0.33 1.32 0.66 2 1 C-2.50552315 4.10380484 -5.66396635 6.15304973 -11.1875 6.0625 C-13.0746875 6.0315625 -13.0746875 6.0315625 -15 6 C-15 5.67 -15 5.34 -15 5 C-12.69 4.34 -10.38 3.68 -8 3 C-8 2.34 -8 1.68 -8 1 C-6.865625 1.020625 -5.73125 1.04125 -4.5625 1.0625 C-1.18424326 1.41577477 -1.18424326 1.41577477 0 0 Z " fill="#F9550F" transform="translate(849,662)"/>
<path d="M0 0 C0.33 0 0.66 0 1 0 C1.06058594 0.61488281 1.12117188 1.22976563 1.18359375 1.86328125 C1.26738281 2.67152344 1.35117187 3.47976563 1.4375 4.3125 C1.51871094 5.11300781 1.59992188 5.91351563 1.68359375 6.73828125 C1.95265693 9.16087179 1.95265693 9.16087179 3 12 C3.66 12.33 4.32 12.66 5 13 C4.34 13 3.68 13 3 13 C3.33 14.65 3.66 16.3 4 18 C3.01 17.67 2.02 17.34 1 17 C-0.18681726 13.43954823 -0.09689832 10.56191663 -0.0625 6.8125 C-0.05347656 5.54019531 -0.04445313 4.26789063 -0.03515625 2.95703125 C-0.02355469 1.98121094 -0.01195312 1.00539063 0 0 Z " fill="#20173D" transform="translate(409,471)"/>
<path d="M0 0 C4.04321968 1.79598374 6.80496342 4.43981915 10 7.44140625 C12.05542919 9.04319579 13.45557105 9.58539439 16 10 C15.34 11.32 14.68 12.64 14 14 C13.40832031 13.38511719 12.81664062 12.77023437 12.20703125 12.13671875 C11.41683594 11.32847656 10.62664063 10.52023437 9.8125 9.6875 C9.03519531 8.88699219 8.25789062 8.08648437 7.45703125 7.26171875 C5.07847399 4.91683198 5.07847399 4.91683198 2.19921875 3.33203125 C1.47347656 2.89246094 0.74773438 2.45289063 0 2 C0 1.34 0 0.68 0 0 Z " fill="#F2EEEB" transform="translate(755,384)"/>
<path d="M0 0 C0.66 0 1.32 0 2 0 C2 1.32 2 2.64 2 4 C1.34 4 0.68 4 0 4 C-0.2475 4.66 -0.495 5.32 -0.75 6 C-1.77397751 8.45754602 -2.84462195 10.85302166 -4 13.25 C-4.495 14.27867187 -4.495 14.27867187 -5 15.328125 C-6 17 -6 17 -8 18 C-6.65150163 13.64029169 -4.95092154 9.68658562 -2.875 5.625 C-2.33617187 4.56539063 -1.79734375 3.50578125 -1.2421875 2.4140625 C-0.83226562 1.61742187 -0.42234375 0.82078125 0 0 Z " fill="#EEE9E9" transform="translate(338,291)"/>
<path d="M0 0 C0.33 0.99 0.66 1.98 1 3 C0.00390625 4.82421875 0.00390625 4.82421875 -1.4375 6.6875 C-1.91058594 7.31011719 -2.38367188 7.93273437 -2.87109375 8.57421875 C-3.24363281 9.04472656 -3.61617187 9.51523437 -4 10 C-5.32 8.35 -6.64 6.7 -8 5 C-6.68 3.68 -5.36 2.36 -4 1 C-3.01 1.33 -2.02 1.66 -1 2 C-0.67 1.34 -0.34 0.68 0 0 Z " fill="#211740" transform="translate(519,483)"/>
<path d="M0 0 C0.66 0.33 1.32 0.66 2 1 C-6.3125 11.0625 -6.3125 11.0625 -11 12 C-9.49650623 8.33213607 -7.36271208 6.31089607 -4.375 3.75 C-3.14910156 2.69039062 -3.14910156 2.69039062 -1.8984375 1.609375 C-1.27195312 1.07828125 -0.64546875 0.5471875 0 0 Z " fill="#20183B" transform="translate(356,214)"/>
<path d="M0 0 C0 0.66 0 1.32 0 2 C1.45833358 3.62514468 1.45833358 3.62514468 3 5 C2.01 5.495 2.01 5.495 1 6 C1.66 6.66 2.32 7.32 3 8 C-1.31392226 7.5206753 -3.16569547 6.2542015 -6 3 C-3.375 0 -3.375 0 0 0 Z " fill="#221943" transform="translate(619,216)"/>
<path d="M0 0 C6.6 0 13.2 0 20 0 C20 0.33 20 0.66 20 1 C16.37 1.33 12.74 1.66 9 2 C9 2.33 9 2.66 9 3 C5.625 3.1875 5.625 3.1875 2 3 C1.34 2.01 0.68 1.02 0 0 Z " fill="#3F3558" transform="translate(517,774)"/>
<path d="M0 0 C5.10204348 -0.68663015 9.29303799 -1.11196383 13.734375 1.78125 C15.93618232 3.77269356 18.00961301 5.79828797 20 8 C19.67 8.66 19.34 9.32 19 10 C17.49428343 8.88266271 15.99555708 7.75589965 14.5 6.625 C13.6646875 5.99851562 12.829375 5.37203125 11.96875 4.7265625 C11.3190625 4.15679688 10.669375 3.58703125 10 3 C10 2.34 10 1.68 10 1 C6.7 1 3.4 1 0 1 C0 0.67 0 0.34 0 0 Z " fill="#FAF8F5" transform="translate(297,569)"/>
<path d="M0 0 C0.33 0 0.66 0 1 0 C1 8.58 1 17.16 1 26 C0.67 26 0.34 26 0 26 C0 22.04 0 18.08 0 14 C-0.66 14 -1.32 14 -2 14 C-1.67 13.01 -1.34 12.02 -1 11 C-0.77820215 9.10787263 -0.59385985 7.21115528 -0.4375 5.3125 C-0.35371094 4.31863281 -0.26992188 3.32476563 -0.18359375 2.30078125 C-0.12300781 1.54152344 -0.06242187 0.78226563 0 0 Z " fill="#362857" transform="translate(373,523)"/>
<path d="M0 0 C2.35953094 2.35953094 2.49141413 3.77895617 3 7 C3.33 6.01 3.66 5.02 4 4 C5.32 4.33 6.64 4.66 8 5 C7.01 6.485 7.01 6.485 6 8 C5.34 8 4.68 8 4 8 C4.33 9.65 4.66 11.3 5 13 C3 12 3 12 2.1484375 10.0390625 C1.89320313 9.24242187 1.63796875 8.44578125 1.375 7.625 C1.11460937 6.83351563 0.85421875 6.04203125 0.5859375 5.2265625 C0 3 0 3 0 0 Z " fill="#F95712" transform="translate(672,716)"/>
<path d="M0 0 C0.99 0 1.98 0 3 0 C3.33 0.99 3.66 1.98 4 3 C3.67 3.33 3.34 3.66 3 4 C2.95936168 5.66617115 2.957279 7.33388095 3 9 C2.34 9 1.68 9 1 9 C1 8.34 1 7.68 1 7 C-0.32 7 -1.64 7 -3 7 C-2.25 2.25 -2.25 2.25 0 0 Z " fill="#322552" transform="translate(469,160)"/>
<path d="M0 0 C1 3 1 3 0.22265625 5.04296875 C-0.16019531 5.75066406 -0.54304688 6.45835937 -0.9375 7.1875 C-1.31777344 7.90292969 -1.69804687 8.61835937 -2.08984375 9.35546875 C-2.54037109 10.16951172 -2.54037109 10.16951172 -3 11 C-3.99 10.67 -4.98 10.34 -6 10 C-5.67 8.35 -5.34 6.7 -5 5 C-4.01 4.67 -3.02 4.34 -2 4 C-0.79117904 1.99983534 -0.79117904 1.99983534 0 0 Z " fill="#1F153E" transform="translate(271,753)"/>
<path d="M0 0 C0.33 3.63 0.66 7.26 1 11 C0.34 11 -0.32 11 -1 11 C-1.33 11.99 -1.66 12.98 -2 14 C-2.33 9.71 -2.66 5.42 -3 1 C-1 0 -1 0 0 0 Z " fill="#342852" transform="translate(170,693)"/>
<path d="M0 0 C0.33 0 0.66 0 1 0 C0.67 2.97 0.34 5.94 0 9 C-0.66 9 -1.32 9 -2 9 C-2.33 10.65 -2.66 12.3 -3 14 C-4.37095624 10.30962722 -3.60010967 8.29116165 -2.0625 4.75 C-1.68222656 3.85796875 -1.30195312 2.9659375 -0.91015625 2.046875 C-0.60980469 1.37140625 -0.30945313 0.6959375 0 0 Z " fill="#F95815" transform="translate(735,741)"/>
<path d="M0 0 C0.66 0.33 1.32 0.66 2 1 C1.01 1.33 0.02 1.66 -1 2 C-1.433125 2.928125 -1.433125 2.928125 -1.875 3.875 C-3.93380198 7.76384819 -8.19474779 9.10547017 -12 11 C-8.38748484 6.43951988 -5.01202555 2.98334854 0 0 Z " fill="#171135" transform="translate(439,426)"/>
<path d="M0 0 C1.12329712 0.07069702 1.12329712 0.07069702 2.26928711 0.14282227 C3.07817383 0.19116211 3.88706055 0.23950195 4.72045898 0.28930664 C5.99566406 0.37341797 5.99566406 0.37341797 7.29663086 0.45922852 C8.57763672 0.53753906 8.57763672 0.53753906 9.88452148 0.61743164 C12.00135081 0.74751612 14.1177833 0.88402822 16.23413086 1.02172852 C16.23413086 1.35172852 16.23413086 1.68172852 16.23413086 2.02172852 C7.81913086 2.51672852 7.81913086 2.51672852 -0.76586914 3.02172852 C-1.42586914 4.34172852 -2.08586914 5.66172852 -2.76586914 7.02172852 C-2.8084127 5.02218106 -2.80667697 3.02131215 -2.76586914 1.02172852 C-1.76586914 0.02172852 -1.76586914 0.02172852 0 0 Z " fill="#FA5812" transform="translate(647.765869140625,635.978271484375)"/>
<path d="M0 0 C2.74792483 3.40219265 6 7.48464588 6 12 C6.99 12.33 7.98 12.66 9 13 C8.67 13.66 8.34 14.32 8 15 C7.34 15 6.68 15 6 15 C4.99267601 13.06629769 3.99436712 11.12789694 3 9.1875 C2.443125 8.10855469 1.88625 7.02960937 1.3125 5.91796875 C0 3 0 3 0 0 Z " fill="#120D33" transform="translate(213,716)"/>
<path d="M0 0 C2.00720923 0.28674418 4.0085944 0.61866701 6 1 C3.63404067 3.61500768 1.13950774 5.38999603 -2 7 C-2.66 6.67 -3.32 6.34 -4 6 C-3.01 5.34 -2.02 4.68 -1 4 C-1 3.01 -1 2.02 -1 1 C-0.67 0.67 -0.34 0.34 0 0 Z " fill="#1E1656" transform="translate(277,395)"/>
<path d="M0 0 C-0.33 0.66 -0.66 1.32 -1 2 C-3.8125 2.8125 -3.8125 2.8125 -7 3 C-9.375 1.5625 -9.375 1.5625 -11 0 C-6.98195309 -0.84098656 -3.98196457 -1.05404945 0 0 Z " fill="#EEE7E3" transform="translate(554,801)"/>
<path d="M0 0 C0.99 0 1.98 0 3 0 C3 2.31 3 4.62 3 7 C3.66 7.33 4.32 7.66 5 8 C4.01 8.495 4.01 8.495 3 9 C2.34 9.99 1.68 10.98 1 12 C0.67 8.04 0.34 4.08 0 0 Z " fill="#342751" transform="translate(172,640)"/>
<path d="M0 0 C0.99 0.33 1.98 0.66 3 1 C1.68 1.33 0.36 1.66 -1 2 C-0.67 2.99 -0.34 3.98 0 5 C-1.98 5.99 -1.98 5.99 -4 7 C-4 6.34 -4 5.68 -4 5 C-4.66 4.67 -5.32 4.34 -6 4 C-3.1875 1.9375 -3.1875 1.9375 0 0 Z " fill="#20153D" transform="translate(607,633)"/>
<path d="M0 0 C3.63 0 7.26 0 11 0 C11.33 1.98 11.66 3.96 12 6 C11.319375 5.360625 10.63875 4.72125 9.9375 4.0625 C6.53591161 1.6741507 4.09566299 1.32122847 0 1 C0 0.67 0 0.34 0 0 Z " fill="#1A1451" transform="translate(293,547)"/>
<path d="M0 0 C-1.875 1.0625 -1.875 1.0625 -4 2 C-4.66 1.67 -5.32 1.34 -6 1 C-7.87056791 0.7724985 -9.74685958 0.59037189 -11.625 0.4375 C-12.62789062 0.35371094 -13.63078125 0.26992188 -14.6640625 0.18359375 C-15.43492187 0.12300781 -16.20578125 0.06242187 -17 0 C-17 -0.33 -17 -0.66 -17 -1 C-15.10590022 -1.22354607 -13.2095652 -1.42819951 -11.3125 -1.625 C-9.72888672 -1.79902344 -9.72888672 -1.79902344 -8.11328125 -1.9765625 C-4.86283654 -2.0010326 -2.89769204 -1.40852563 0 0 Z " fill="#332452" transform="translate(544,306)"/>
<path d="M0 0 C0.91007813 0.00902344 1.82015625 0.01804688 2.7578125 0.02734375 C3.45648437 0.03894531 4.15515625 0.05054688 4.875 0.0625 C4.875 0.3925 4.875 0.7225 4.875 1.0625 C3.225 1.0625 1.575 1.0625 -0.125 1.0625 C-0.125 1.7225 -0.125 2.3825 -0.125 3.0625 C-1.48625 3.0315625 -1.48625 3.0315625 -2.875 3 C-5.55172588 3.0514755 -7.59488052 3.2840017 -10.125 4.0625 C-6.74032128 0.52397224 -4.89499091 -0.06275629 0 0 Z " fill="#140D31" transform="translate(512.125,250.9375)"/>
<path d="M0 0 C3.21043882 1.38188453 5.04936365 2.92421903 7.25 5.625 C8.03117188 6.57246094 8.03117188 6.57246094 8.828125 7.5390625 C9.40820312 8.26222656 9.40820312 8.26222656 10 9 C9.01 9 8.02 9 7 9 C5.62517293 7.36739286 4.29352333 5.69774938 3 4 C2.01 3.34 1.02 2.68 0 2 C0 1.34 0 0.68 0 0 Z " fill="#E9E5E2" transform="translate(670,219)"/>
<path d="M0 0 C-0.99 0.33 -1.98 0.66 -3 1 C-4.38576923 2.62332967 -5.72641268 4.28724465 -7 6 C-7.185625 5.071875 -7.185625 5.071875 -7.375 4.125 C-7.87197356 1.80879168 -7.87197356 1.80879168 -10 0 C-6.33694766 -0.74926071 -3.57644848 -1.2380014 0 0 Z " fill="#372A56" transform="translate(551,161)"/>
<path d="M0 0 C0.66 0.33 1.32 0.66 2 1 C1.5205537 5.21912747 0.83374881 7.79663178 -2 11 C-1.7215625 9.824375 -1.7215625 9.824375 -1.4375 8.625 C-0.74037734 6.02910225 -0.74037734 6.02910225 -2 4 C-1.0625 1.875 -1.0625 1.875 0 0 Z " fill="#20173E" transform="translate(328,305)"/>
<path d="M0 0 C1.48117801 0.28127421 2.95993249 0.57533732 4.4375 0.875 C5.67306641 1.11863281 5.67306641 1.11863281 6.93359375 1.3671875 C7.61550781 1.57601562 8.29742188 1.78484375 9 2 C9.33 2.66 9.66 3.32 10 4 C8.02 4.99 8.02 4.99 6 6 C5.34 5.01 4.68 4.02 4 3 C1.94996045 1.80767387 1.94996045 1.80767387 0 1 C0 0.67 0 0.34 0 0 Z " fill="#1D153B" transform="translate(582,169)"/>
<path d="M0 0 C0.66 0.33 1.32 0.66 2 1 C2 1.99 2 2.98 2 4 C3.32 4.66 4.64 5.32 6 6 C0.46153846 5.38461538 0.46153846 5.38461538 -1.875 3.4375 C-2.24625 2.963125 -2.6175 2.48875 -3 2 C-2.01 1.34 -1.02 0.68 0 0 Z " fill="#21183F" transform="translate(494,791)"/>
<path d="M0 0 C1.32 0.33 2.64 0.66 4 1 C4 3.97 4 6.94 4 10 C3.34 9.67 2.68 9.34 2 9 C1.3671875 6.93359375 1.3671875 6.93359375 0.875 4.4375 C0.70742188 3.61121094 0.53984375 2.78492188 0.3671875 1.93359375 C0.24601563 1.29550781 0.12484375 0.65742187 0 0 Z " fill="#F85713" transform="translate(691,769)"/>
<path d="M0 0 C-0.375 2.9375 -0.375 2.9375 -1 6 C-1.99 6.495 -1.99 6.495 -3 7 C-3 6.01 -3 5.02 -3 4 C-3.99 3.67 -4.98 3.34 -6 3 C-3.375 0 -3.375 0 0 0 Z " fill="#F85A14" transform="translate(804,654)"/>
<path d="M0 0 C-0.66 0.66 -1.32 1.32 -2 2 C-2.99 2 -3.98 2 -5 2 C-5 2.66 -5 3.32 -5 4 C-6.32 4.33 -7.64 4.66 -9 5 C-9.33 4.01 -9.66 3.02 -10 2 C-8.71211992 1.46987262 -7.41953322 0.9511671 -6.125 0.4375 C-5.40570312 0.14746094 -4.68640625 -0.14257812 -3.9453125 -0.44140625 C-2 -1 -2 -1 0 0 Z " fill="#EFEAE6" transform="translate(564,797)"/>
<path d="M0 0 C0.66 0.33 1.32 0.66 2 1 C2 3.31 2 5.62 2 8 C0.02 8.99 0.02 8.99 -2 10 C-1.85950482 8.52031676 -1.71245174 7.04125484 -1.5625 5.5625 C-1.48128906 4.73878906 -1.40007812 3.91507813 -1.31640625 3.06640625 C-1 1 -1 1 0 0 Z " fill="#3A2C55" transform="translate(193,787)"/>
<path d="M0 0 C0.33 0 0.66 0 1 0 C1.1546875 1.175625 1.1546875 1.175625 1.3125 2.375 C1.77595022 5.33045181 1.77595022 5.33045181 5 7 C3.68 7.33 2.36 7.66 1 8 C1.33 8.99 1.66 9.98 2 11 C1.34 11 0.68 11 0 11 C0 7.37 0 3.74 0 0 Z " fill="#332552" transform="translate(167,715)"/>
<path d="M0 0 C0.66 0.33 1.32 0.66 2 1 C2 1.99 2 2.98 2 4 C3.98 3.34 5.96 2.68 8 2 C6.9375 3.5 6.9375 3.5 5 5 C1.3125 5.1875 1.3125 5.1875 -2 5 C-1.34 3.35 -0.68 1.7 0 0 Z " fill="#201640" transform="translate(422,205)"/>
<path d="M0 0 C0.66 0 1.32 0 2 0 C2.33 2.97 2.66 5.94 3 9 C1.68 8.67 0.36 8.34 -1 8 C-1 6.68 -1 5.36 -1 4 C-0.34 4 0.32 4 1 4 C0.67 2.68 0.34 1.36 0 0 Z " fill="#CBC2C4" transform="translate(435,789)"/>
<path d="M0 0 C0.99 1.32 1.98 2.64 3 4 C2.67 4.99 2.34 5.98 2 7 C1.65179959 8.66362417 1.31595508 10.32995171 1 12 C0.67 12 0.34 12 0 12 C0 8.04 0 4.08 0 0 Z " fill="#F9F6F4" transform="translate(202,696)"/>
<path d="M0 0 C0.99 0 1.98 0 3 0 C3.6875 2.75 3.6875 2.75 4 6 C3.01 7.32 2.02 8.64 1 10 C0.67 6.7 0.34 3.4 0 0 Z " fill="#392C57" transform="translate(281,347)"/>
<path d="M0 0 C0.66 0 1.32 0 2 0 C1.69381595 3.67420866 1.24228216 4.78135513 -1.5625 7.3125 C-2.366875 7.869375 -3.17125 8.42625 -4 9 C-3.71125 8.443125 -3.4225 7.88625 -3.125 7.3125 C-1.9586747 4.91505355 -0.9660119 2.48403061 0 0 Z " fill="#1E153C" transform="translate(366,248)"/>
<path d="M0 0 C4.455 0.99 4.455 0.99 9 2 C6 4 6 4 2.8125 3.625 C1.884375 3.41875 0.95625 3.2125 0 3 C0 2.01 0 1.02 0 0 Z " fill="#ECE6E2" transform="translate(531,754)"/>
<path d="M0 0 C0.99 0.33 1.98 0.66 3 1 C3.125 3.875 3.125 3.875 3 7 C2.34 7.66 1.68 8.32 1 9 C-0.4783226 6.04335481 -0.06032783 3.25770263 0 0 Z " fill="#382D55" transform="translate(337,744)"/>
<path d="M0 0 C2.52588702 2.36292656 3.88820837 3.66462511 5 7 C4.01 8.485 4.01 8.485 3 10 C0 3.375 0 3.375 0 0 Z " fill="#F95412" transform="translate(677,730)"/>
<path d="M0 0 C0.33 0 0.66 0 1 0 C1.25 7.625 1.25 7.625 -1 11 C-2.0257259 6.58937864 -2.03684712 4.07369424 0 0 Z " fill="#1E153A" transform="translate(337,729)"/>
<path d="M0 0 C0.99 0.33 1.98 0.66 3 1 C3 2.65 3 4.3 3 6 C3.66 6 4.32 6 5 6 C4.67 6.66 4.34 7.32 4 8 C2.68 7.67 1.36 7.34 0 7 C0 4.69 0 2.38 0 0 Z " fill="#483B63" transform="translate(168,681)"/>
<path d="M0 0 C0.66 0.99 1.32 1.98 2 3 C0.71034824 4.37562854 -0.62689293 5.70766393 -2 7 C-2.66 7 -3.32 7 -4 7 C-3.67 5.02 -3.34 3.04 -3 1 C-2.01 0.67 -1.02 0.34 0 0 Z " fill="#2F224F" transform="translate(328,246)"/>
</svg>
